<svg xmlns="http://www.w3.org/2000/svg" xmlns:xlink="http://www.w3.org/1999/xlink" width="252" height="90" viewBox="0 0 252 90"><defs><clipPath id="b"><rect width="252" height="90"/></clipPath></defs><g id="a" clip-path="url(#b)"><g transform="translate(7309.094 720.533)"><g transform="translate(-7315.094 -689.026)"><g transform="matrix(0.966, -0.259, 0.259, 0.966, 0, 12.083)"><path d="M23.333,51.028h-.01a23.215,23.215,0,0,1-6.211-.849l-.007,0-.007,0-.019-.005A23.33,23.33,0,0,1,.776,21.727a.085.085,0,0,1,0-.01.092.092,0,0,0,0-.01c.044-.165.088-.326.136-.49L5.809,2.958A3.986,3.986,0,0,1,10.695.137l18.275,4.9.292.075A23.327,23.327,0,0,1,45.9,21.7l0,.011,0,.008,0,.008a23.348,23.348,0,0,1-22.551,29.3h-.025ZM19.886,32.14h0a11.155,11.155,0,0,1,2.059.192c3.256.613,5.637,2.692,7.551,4.361,1.516,1.323,2.825,2.465,4.1,2.465a2.128,2.128,0,0,0,.467-.052c1.416-.319,3.468-2.184,5.228-4.749,1.422-2.074,2.838-4.962,2.545-6.848-.258-1.663-2.115-3.428-5.37-5.107a47.97,47.97,0,0,0-11.58-3.9A48.22,48.22,0,0,0,15.1,17.256c-3.574,0-6.2.759-8.04,2.321-.764.65-1.606,2.134-1.272,5.517.412,4.18,2.359,8.649,3.665,9.376a1.736,1.736,0,0,0,.866.207,9.194,9.194,0,0,0,3.039-.913c.282-.116.573-.236.874-.356A15.188,15.188,0,0,1,19.886,32.14Z" transform="translate(0 0)" fill="#2f3937"/></g><g transform="translate(18.219 28.931)"><path d="M368.423,185.191a4.322,4.322,0,0,1,4.166,2.987,1.568,1.568,0,0,1-.149,1.292,1.188,1.188,0,0,1-1.8-.6,2.246,2.246,0,0,0-3.377-1.281c-.438.28-.7.828-1.072,1.225a2.322,2.322,0,0,1-1.337.932c-.694.1-1.048-.42-.582-1.689A4.45,4.45,0,0,1,368.423,185.191Z" transform="translate(-364.052 -185.19)" fill="#2f3937"/><path d="M435.555,189.719a1.9,1.9,0,0,1-.976-1.006,2.419,2.419,0,0,0-2.149-1.46,2.132,2.132,0,0,0-2.223,1.48,1.071,1.071,0,1,1-2.108-.259,4.057,4.057,0,0,1,4.118-3.282,4.486,4.486,0,0,1,4.455,3.282C436.857,189.283,436.094,189.929,435.555,189.719Z" transform="translate(-412.861 -185.189)" fill="#2f3937"/></g></g><g transform="translate(-7293.181 -729.353)"><g transform="translate(0 10.82)"><path d="M424.122,104.145c-3.31.4-35.405,1.587-51.174,2.23-4.522,7.338-16.939,13.837-16.939,13.837,1.685-1.967,4.294-9.591,5.523-13.386-4.024.152-7.1.263-8.557.311-7.13.24-6.907-4.08-6.907-4.08s.125-17.211-.3-23.675,5.051-5.68,5.051-5.68,61.47-.556,68-1.252,6.753,4.354,6.753,4.354l3.192,20.781S429.389,103.505,424.122,104.145Z" transform="translate(-344.777 -72.715)" fill="#fff"/><path d="M428.081,91.651q-.9-5.765-1.807-11.531a35.718,35.718,0,0,0-.869-5.141c-1.017-3.253-4.715-3.61-8.006-3.363-3.116.233-6.26.263-9.384.335-9.7.222-31.509.772-41.206.854q-7.9.067-15.8.107a11.63,11.63,0,0,0-3.435.386c-3.552,1.136-3.245,4.808-3.123,7.47.324,7.084.253,14.189.209,21.278-.038,6.246,10.526,4.663,15.42,4.368-1.352,4.16-2.53,9.15-5.375,12.706-.471.589,1.057.373,1.3.249a70.407,70.407,0,0,0,8.078-4.979,47.242,47.242,0,0,0,6.09-5.058,26.43,26.43,0,0,0,2.373-2.718c.923-1.2,2.964-.811,4.509-.874,11.214-.456,34.8-.9,45.954-2.121a1.764,1.764,0,0,0,.233-.024,1.272,1.272,0,0,0,.193-.038C430.257,102.286,428.784,96.134,428.081,91.651Zm-4.628,11.117c-11.225,1.245-34.895,1.684-46.187,2.145a28.2,28.2,0,0,0-4.882.226c-.776.181-1.012.887-1.4,1.43a31.751,31.751,0,0,1-6.538,6.3,61.757,61.757,0,0,1-7.1,4.741c2.217-3.555,3.272-7.994,4.516-11.742.08-.24-.317-.343-.513-.336-4.054.15-13.9,2.052-14.983-2.97-.465-2.167-.026-4.7-.028-6.886,0-4.622-.027-9.245-.172-13.865-.1-3.153-.856-8.036,3.816-8.058,15.579-.072,43.278-.62,58.851-1q2.948-.071,5.893-.186c2.143-.088,4.58-.552,6.589.178,2.912,1.058,2.82,4.715,3.176,6.987l2.176,13.887C427.138,96.64,428.359,101.941,423.453,102.769Z" transform="translate(-344.382 -72.016)" fill="#2f3937" stroke="#2f3937" stroke-width="1"/></g><path d="M-.166-.208q0-.216.407-2.092Q.4-3.021.531-3.594q.174-.73.332-1.378.125-.5.382-1.469l.838-3.337.365-1.511a.564.564,0,0,1,.278-.552,2.036,2.036,0,0,1,.892-.145,2.3,2.3,0,0,1,1.1.307q.564.307.564.473a.769.769,0,0,1-.108.241l-.149.307L4.723-9.513l-.2.772Q4.2-7.5,3.752-5.221l-.166.838Q3.37-3.337,3.329-3.146q-.091.415-.282,1.179Q2.8-.888,2.548.017A.573.573,0,0,1,2.3.39a1.87,1.87,0,0,1-.768.1H1.278a1.977,1.977,0,0,1-1-.253Q-.166-.017-.166-.208ZM7.96-12.186a1.888,1.888,0,0,1,.805.228q.465.228.465.486a9.569,9.569,0,0,1-.589,1.386L7.62-7.786a.99.99,0,0,1-.249.386.5.5,0,0,1-.332.12,1.7,1.7,0,0,1-.618-.228q-.444-.228-.452-.344a5.5,5.5,0,0,1,.4-1.208q.4-1,.589-1.664l.149-.4.141-.332a2.082,2.082,0,0,1,.245-.623.558.558,0,0,1,.411-.108ZM10.351.423l-.216.008L9.978.44A2.524,2.524,0,0,1,8.865.091l-.44-.216q-.05-.025-.087-.154A1.026,1.026,0,0,1,8.3-.564a6.946,6.946,0,0,1,.174-1.121q.083-.382.237-1.038T9.064-4.15q.374-1.527.448-1.81.191-.755.465-1.8.075-.3.481-1.8l.166-.631a1.563,1.563,0,0,1,.415-.826,1.043,1.043,0,0,1,.739-.27,4.318,4.318,0,0,1,.863.1q.5.1,1.494.411a.264.264,0,0,1,.125.083.548.548,0,0,1,.042.183q0,.075-.033.349t-.1.735q-.071.461-.129.909a6.378,6.378,0,0,0-.058.813,7.182,7.182,0,0,1-.058.822q-.058.49-.091.755l-.091.805.025.058a.1.1,0,0,0,.075.025,11.957,11.957,0,0,0,.739-1.818q.34-.93.681-1.751t.706-1.61l.39-.93q.224-.573.614-.573a4.047,4.047,0,0,1,1.137.208q.374.108.664.22a4.96,4.96,0,0,1,.581.27.645.645,0,0,1,.224.216.65.65,0,0,1,.083.349l-.083.282a15.5,15.5,0,0,0-.519,2.059Q18.843-7.18,18.527-5.8q-.183.813-.224,1-.141.581-.257,1.054-.025.108-.3,1.121L17.266-.789,17,.241q-.025.1-.2.149a1.913,1.913,0,0,1-.5.05A3.264,3.264,0,0,1,15.19.249q-.531-.191-.531-.382l.291-1.021q.307-1.021.569-2.05t.457-1.743q.2-.714.461-1.6L16.9-8.143a.143.143,0,0,0-.033-.091l-.05-.042q-.05,0-1.1,2.474T13.364-.747a.394.394,0,0,1-.091-.008,1.372,1.372,0,0,1-.149-.058.924.924,0,0,0-.257-.066L12.8-.872l-.066.008a.813.813,0,0,1-.291-.083l-.266-.108a.24.24,0,0,1-.166-.091.744.744,0,0,1-.025-.232V-1.9l-.008-.755-.008-.9q0-1.046.129-2.565t.129-1.751a.22.22,0,0,0-.025-.125.19.19,0,0,0-.116-.05,10.828,10.828,0,0,0-.332,1.776q-.133.921-.278,1.735T11.14-2.88l-.266,1.162A13.806,13.806,0,0,0,10.525.116V.208Zm12.841-3.47a9.429,9.429,0,0,1,.847-.506A1.148,1.148,0,0,1,24.5-3.7q.34,0,.415.208l.05.133a2.242,2.242,0,0,0,.569.9,1.151,1.151,0,0,0,.793.32.825.825,0,0,0,.589-.274.954.954,0,0,0,.257-.664q0-.365-.921-1.361l-.473-.506a3.78,3.78,0,0,1-.681-1.046,3.54,3.54,0,0,1-.174-.556,2.6,2.6,0,0,1-.058-.556,4.393,4.393,0,0,1,.589-2.2A6.58,6.58,0,0,1,27.2-11.239a4.73,4.73,0,0,1,.888-.527,1.973,1.973,0,0,1,.714-.22,2.06,2.06,0,0,1,1,.382l.365.216.274.141A1.942,1.942,0,0,1,31.5-9.33a3.978,3.978,0,0,1-.34,1.756q-.34.693-.847.693a2.729,2.729,0,0,1-.432-.033q-.208-.033-.332-.058-.232-.05-.415-.1a1.46,1.46,0,0,1-.232-.071.41.41,0,0,1-.216-.166.969.969,0,0,1-.058-.4v-.232q0-.266.012-.382t.054-.365l.075-.515a.115.115,0,0,0-.046-.1.352.352,0,0,0-.145-.05q-.2,0-.614.548a2.391,2.391,0,0,0-.291.548,1.639,1.639,0,0,0-.1.564q0,.672,1.087,1.7l.357.34a4.282,4.282,0,0,1,.859,1.079,2.221,2.221,0,0,1,.261,1.029A3.861,3.861,0,0,1,28.966-.8,3.586,3.586,0,0,1,26.322.423,3.163,3.163,0,0,1,24.11-.452a2.753,2.753,0,0,1-.95-2.1l.025-.39Zm11.231-1.61q0,.058.079.087a.909.909,0,0,0,.278.029h.257a1.632,1.632,0,0,0,.5-.046q.108-.046.166-.278l.066-.5.066-.581q.075-.54.158-1.108t.183-1.108l.191-1.121-.017-.042-.058-.008a4.949,4.949,0,0,0-.681,1.619l-.083.249Q35.179-6.4,34.813-5.57Zm-.93,2.548q-.141,0-.432.8-.133.365-.27.71t-.253.618l-.208.548a.478.478,0,0,1-.473.39L31.584.946l-.39-.008a3.259,3.259,0,0,1-.847-.5L30.273.39,30.182.324a.321.321,0,0,1-.174-.257,16.509,16.509,0,0,1,1.187-3.254q.589-1.378,1.365-3.055T34.224-9.72q.083-.158.216-.448l.257-.564q.548-1.2,1.2-1.2a3.125,3.125,0,0,1,.523.05q.141.025.278.058a2.333,2.333,0,0,1,.27.083q.374.116.863.232a4.336,4.336,0,0,1,.54.125,1.191,1.191,0,0,1,.457.324.766.766,0,0,1,.149.473l-.257,2.714q-.042.481-.178,1.7t-.2,1.9q-.083,1.021-.083,1.868L38.208-1.2q0,.838-.141.938a2.917,2.917,0,0,1-.627.311,2,2,0,0,1-.635.1h-.39a1.079,1.079,0,0,1-.581-.125.6.6,0,0,1-.166-.5V-.647l.008-.291.008-.216-.042-.332-.042-.6a.129.129,0,0,0-.025-.091l-.066-.017a16.543,16.543,0,0,0-1.71.083l-.158.017L33.552-2.1Zm5.86-.938a9.429,9.429,0,0,1,.847-.506,1.148,1.148,0,0,1,.457-.149q.34,0,.415.208l.05.133a2.242,2.242,0,0,0,.569.9,1.151,1.151,0,0,0,.793.32.825.825,0,0,0,.589-.274.954.954,0,0,0,.257-.664q0-.365-.921-1.361l-.473-.506a3.78,3.78,0,0,1-.681-1.046,3.54,3.54,0,0,1-.174-.556,2.6,2.6,0,0,1-.058-.556,4.393,4.393,0,0,1,.589-2.2,6.58,6.58,0,0,1,1.751-1.938,4.73,4.73,0,0,1,.888-.527,1.973,1.973,0,0,1,.714-.22,2.06,2.06,0,0,1,1,.382l.365.216.274.141A1.942,1.942,0,0,1,47.663-9.33a3.978,3.978,0,0,1-.34,1.756q-.34.693-.847.693a2.729,2.729,0,0,1-.432-.033q-.208-.033-.332-.058-.232-.05-.415-.1a1.46,1.46,0,0,1-.232-.071.41.41,0,0,1-.216-.166.969.969,0,0,1-.058-.4v-.232q0-.266.012-.382t.054-.365l.075-.515a.115.115,0,0,0-.046-.1.352.352,0,0,0-.145-.05q-.2,0-.614.548a2.391,2.391,0,0,0-.291.548,1.639,1.639,0,0,0-.1.564q0,.672,1.087,1.7l.357.34a4.282,4.282,0,0,1,.859,1.079A2.221,2.221,0,0,1,46.3-3.536,3.861,3.861,0,0,1,45.127-.8,3.586,3.586,0,0,1,42.483.423a3.163,3.163,0,0,1-2.212-.876,2.753,2.753,0,0,1-.95-2.1l.025-.39Zm7.545,0a9.429,9.429,0,0,1,.847-.506A1.148,1.148,0,0,1,48.2-3.7q.34,0,.415.208l.05.133a2.242,2.242,0,0,0,.569.9,1.151,1.151,0,0,0,.793.32.825.825,0,0,0,.589-.274.954.954,0,0,0,.257-.664q0-.365-.921-1.361l-.473-.506A3.78,3.78,0,0,1,48.8-5.993a3.54,3.54,0,0,1-.174-.556,2.6,2.6,0,0,1-.058-.556,4.393,4.393,0,0,1,.589-2.2,6.58,6.58,0,0,1,1.751-1.938,4.73,4.73,0,0,1,.888-.527,1.973,1.973,0,0,1,.714-.22,2.06,2.06,0,0,1,1,.382l.365.216.274.141A1.942,1.942,0,0,1,55.208-9.33a3.978,3.978,0,0,1-.34,1.756q-.34.693-.847.693a2.729,2.729,0,0,1-.432-.033q-.208-.033-.332-.058-.232-.05-.415-.1a1.46,1.46,0,0,1-.232-.071.41.41,0,0,1-.216-.166.969.969,0,0,1-.058-.4v-.232q0-.266.012-.382t.054-.365l.075-.515a.115.115,0,0,0-.046-.1.352.352,0,0,0-.145-.05q-.2,0-.614.548a2.391,2.391,0,0,0-.291.548,1.639,1.639,0,0,0-.1.564q0,.672,1.087,1.7l.357.34a4.282,4.282,0,0,1,.859,1.079,2.221,2.221,0,0,1,.261,1.029A3.861,3.861,0,0,1,52.673-.8,3.586,3.586,0,0,1,50.029.423a3.163,3.163,0,0,1-2.212-.876,2.753,2.753,0,0,1-.95-2.1l.025-.39ZM57.757.357a1.61,1.61,0,0,1-.564-.125L57.084.191A1.067,1.067,0,0,0,56.9.137a1.263,1.263,0,0,0-.245-.021.865.865,0,0,1-.4-.075.548.548,0,0,1-.183-.133l-.033-.075L56.2-.913l.315-1.4q.075-.382.224-.917a3.743,3.743,0,0,0,.149-.66l-.208-.647a9.785,9.785,0,0,1-.307-1.378q-.058-.407-.112-.867a7.607,7.607,0,0,1-.054-.884q0-.315-.025-.979T56.163-9.67q0-.208.008-.386a3.324,3.324,0,0,1,.046-.4.626.626,0,0,1,.129-.32,1.944,1.944,0,0,1,.635-.374,2.1,2.1,0,0,1,.743-.208q.647,0,.955.872a8.579,8.579,0,0,1,.307,2.665l-.008.44-.008.34.008.266a.257.257,0,0,0,.017.05.054.054,0,0,0,.025.025,6.165,6.165,0,0,0,.594-1.249,19.5,19.5,0,0,1,1.125-2.27l.556-.979q.847-1.519,1.312-1.519a1.631,1.631,0,0,1,.477.075,2.665,2.665,0,0,1,.535.241q.564.315.564.623a5.868,5.868,0,0,1-.54,1.191q-.54,1.042-1.635,2.951-.739,1.312-1.527,2.59-.813,1.345-.872,1.478l-.332,1.137Q58.952-1.278,58.628,0a.372.372,0,0,1-.249.286A2.011,2.011,0,0,1,57.757.357Zm9.878-11.405a.684.684,0,0,1-.154.307,2.018,2.018,0,0,0-.2.332l-.2.548-.332.938q-.075.2-.564,1.585-.083.232-.506,1.453l-.457,1.32-.017.058-.083.274Q64.8-3.179,64.3-3.179a2.5,2.5,0,0,1-.826-.137q-.394-.137-.394-.32A14.2,14.2,0,0,1,63.352-5.5q.274-1.469.7-3.129.025-.141.037-.187t.079-.278q.822-3.287,1.619-3.287a2.1,2.1,0,0,1,1.158.523Q67.635-11.331,67.635-11.048ZM63.094.407a1.2,1.2,0,0,1-.872-.369,1.129,1.129,0,0,1-.374-.818,2.062,2.062,0,0,1,.594-1.374A1.628,1.628,0,0,1,63.6-2.822a1.733,1.733,0,0,1,1.029.295.882.882,0,0,1,.415.743,2.309,2.309,0,0,1-.577,1.49A1.73,1.73,0,0,1,63.094.407Z" transform="translate(8.192 34.227) rotate(-2)" fill="#2f3937"/></g><path d="M28.752-25.872c0-2.592-3.7-7.152-11.376-7.152C7.344-33.024.624-25.776.624-14.832c0,10.08,7.1,15.6,16.128,15.6,8.88,0,13.728-5.712,13.728-13.584,0-3.312-1.872-5.232-4.176-5.232a15.909,15.909,0,0,0-7.392,1.968c-1.152.864-1.488,1.344-1.488,2.16a2.314,2.314,0,0,0,1.536,2.256A2.011,2.011,0,0,1,20.3-9.84a2.272,2.272,0,0,1-2.256,2.208c-1.728,0-4.176-2.736-4.176-8.4,0-5.136,1.824-6.96,3.312-6.96,1.3,0,2.064,1.152,2.448,2.592.192.672.528,1.008,1.536,1.008C23.328-19.392,28.752-23.28,28.752-25.872Zm16.9,1.152c-7.536,0-13.248,5.424-13.248,13.1C32.4-4.08,38.208.576,45.408.576c6.384,0,11.28-3.744,11.28-5.808,0-1.872-2.352-4.56-3.888-4.7-1.3,0-3.36,2.784-6.576,2.784-2.5,0-3.312-.912-3.312-1.824,0-2.064,13.3-1.1,13.3-7.056C56.208-20.928,52.32-24.72,45.648-24.72Zm2.16,7.68c0,.768-3.552,2.16-5.376,2.16a.781.781,0,0,1-.768-.72c0-1.344,2.16-2.736,4.368-2.736C47.136-18.336,47.808-17.76,47.808-17.04ZM66.48-24.288c-2.16,0-9.168,2.592-9.168,4.944,0,2.064,2.016,1.968,2.016,11.424,0,1.632-.432,3.792-.432,5.328,0,2.064,4.32,3.7,8.448,3.7,2.5,0,3.936-1.632,3.936-4.272,0-4.7-1.1-8.064-1.1-12,0-1.056.48-1.584,1.2-1.584.96,0,1.392.864,1.392,2.3,0,.912.624,1.44,1.632,1.44,3.648,0,7.344-3.12,7.344-5.9,0-2.352-2.5-5.952-6-5.952-3.168,0-5.664,2.592-6.336,2.592C68.688-22.272,68.352-24.288,66.48-24.288Zm15.6-7.056a5.5,5.5,0,0,0,5.712,5.472,5.537,5.537,0,0,0,5.76-5.472,5.616,5.616,0,0,0-5.76-5.568A5.574,5.574,0,0,0,82.08-31.344ZM91.392-24.1c-4.08,0-9.072,2.16-9.072,4.7,0,2.064,1.248,3.744,1.248,7.3s-1.1,7.536-1.1,9.36c0,1.872,3.648,3.648,7.92,3.648,2.736,0,3.888-1.392,3.888-2.88,0-2.4-.96-5.52-.96-9.024,0-4.944,1.248-8.592,1.248-10.416C94.56-23.184,93.312-24.1,91.392-24.1Zm13.92-12c-3.936,0-9.216,2.928-9.216,5.424s1.584,7.728,1.584,14.736c0,5.712-.96,10.8-.96,14.16,0,1.872,1.056,2.928,3.168,2.928,5.52,0,8.832-2.88,8.832-4.8s-1.728-3.6-1.728-6.816c0-9.36,1.44-17.328,1.44-21.984C108.432-34.944,107.328-36.1,105.312-36.1Zm14.112,0c-3.936,0-9.216,2.928-9.216,5.424s1.584,7.728,1.584,14.736c0,5.712-.96,10.8-.96,14.16,0,1.872,1.056,2.928,3.168,2.928,5.52,0,8.832-2.88,8.832-4.8s-1.728-3.6-1.728-6.816c0-9.36,1.44-17.328,1.44-21.984C122.544-34.944,121.44-36.1,119.424-36.1ZM138.24-24.912c-6.192,0-10.752,2.16-11.856,4.608a6.114,6.114,0,0,0-.432,2.64c0,1.584.384,3.264,1.632,3.264,1.536,0,4.56-3.408,8.832-3.408,1.008,0,1.488.48,1.488,1.008,0,2.64-14.064,1.728-14.064,11.232,0,3.456,2.592,6.192,7.536,6.192,3.5,0,6.24-1.824,6.816-1.824.528,0,1.1,1.92,3.312,1.92,2.736,0,6.816-2.592,6.816-4.032,0-1.008-1.152-.96-1.152-4.272,0-1.92.816-4.032.816-9.216S143.328-24.912,138.24-24.912Zm-.816,14.784c.48,0,.672.48.672,1.1,0,1.248-2.544,3.552-3.84,3.552-.96,0-1.488-.432-1.488-1.344C132.768-8.064,135.648-10.128,137.424-10.128ZM170.832-20.16c0-1.44-3.024-4.7-9.12-4.7s-9.792,2.88-9.792,7.1c0,7.344,9.408,7.44,9.408,10.128a1.262,1.262,0,0,1-1.2,1.248c-2.832,0-4.32-3.552-5.712-3.552-1.776,0-4.9,3.072-4.9,5.328,0,1.872,5.52,5.616,12.24,5.616,5.856,0,9.552-3.936,9.552-7.872,0-6.768-10.32-7.44-10.32-10.464a1.1,1.1,0,0,1,1.152-1.1c2.016,0,3.36,3.264,4.608,3.264C168.24-15.168,170.832-18.432,170.832-20.16Zm22.416,0c0-1.44-3.024-4.7-9.12-4.7s-9.792,2.88-9.792,7.1c0,7.344,9.408,7.44,9.408,10.128a1.262,1.262,0,0,1-1.2,1.248c-2.832,0-4.32-3.552-5.712-3.552-1.776,0-4.9,3.072-4.9,5.328,0,1.872,5.52,5.616,12.24,5.616,5.856,0,9.552-3.936,9.552-7.872,0-6.768-10.32-7.44-10.32-10.464a1.1,1.1,0,0,1,1.152-1.1c2.016,0,3.36,3.264,4.608,3.264C190.656-15.168,193.248-18.432,193.248-20.16Z" transform="translate(-7252.104 -639)" fill="#2f3937"/></g></g></svg>