<svg xmlns="http://www.w3.org/2000/svg" xmlns:xlink="http://www.w3.org/1999/xlink" width="24" height="24" viewBox="0 0 24 24"><defs><clipPath id="b"><rect width="24" height="24"/></clipPath></defs><g id="a" clip-path="url(#b)"><path d="M232.026,134.347a1.748,1.748,0,0,1-.269-.022,2.219,2.219,0,0,1-.293-.067c-.236-.071-.487-.154-.746-.248-.24-.087-.494-.184-.755-.291-.453-.185-.945-.4-1.461-.647a8.083,8.083,0,0,0-.758-.309c-.258-.092-.524-.176-.781-.258-.292-.093-.594-.189-.884-.3-.156-.057-.3-.113-.431-.171-.15-.064-.286-.129-.417-.2l-.442-.231h0c-.447-.233-.868-.454-1.275-.679-.457-.253-.83-.478-1.175-.706a11.12,11.12,0,0,1-1.1-.824c-.181-.155-.359-.318-.529-.485s-.352-.359-.52-.55a6.572,6.572,0,0,1-.433-.572c-.139-.2-.3-.44-.469-.711-.293-.461-.528-.857-.53-.861-.143-.249-.273-.5-.386-.748s-.2-.475-.287-.709-.144-.449-.2-.669a6.29,6.29,0,0,1-.118-.628,5.28,5.28,0,0,1,.121-2.078,4.854,4.854,0,0,1,.274-.763,4.565,4.565,0,0,1,.31-.568,2.8,2.8,0,0,1,.4-.514.513.513,0,0,0,.117-.18.505.505,0,0,1,.118-.18,7.134,7.134,0,0,1,1.278-.831,7.8,7.8,0,0,1,1.432-.557,5.015,5.015,0,0,1,.709-.143,5.708,5.708,0,0,1,.729-.046h0a6.811,6.811,0,0,1,1.22.115,8.147,8.147,0,0,1,1.2.318,8.893,8.893,0,0,1,1.129.482,8.524,8.524,0,0,1,1.011.607,4.969,4.969,0,0,0,.54.343.889.889,0,0,0,.4.123.413.413,0,0,0,.192-.045.594.594,0,0,0,.174-.142,2.322,2.322,0,0,0,.341-.6,9.261,9.261,0,0,1,.656-1.3,3.694,3.694,0,0,1,.979-1.067,4.292,4.292,0,0,1,.4-.251c.137-.076.284-.147.435-.213a6.214,6.214,0,0,1,.948-.317,7.869,7.869,0,0,1,1.011-.182,9.01,9.01,0,0,1,1.026-.058c.274,0,.549.012.818.037s.523.059.769.106a4.557,4.557,0,0,1,.674.181,4.7,4.7,0,0,1,.626.275,5.025,5.025,0,0,1,.577.357,5.494,5.494,0,0,1,.526.429,6.3,6.3,0,0,1,.893,1.031,7.252,7.252,0,0,1,.669,1.191,5.751,5.751,0,0,1,.273.75,6.259,6.259,0,0,1,.17.782,7.037,7.037,0,0,1,.075.807,8.055,8.055,0,0,1-.014.825c-.018.273-.051.554-.1.837s-.1.559-.171.842-.148.559-.239.841-.19.556-.3.834a15.5,15.5,0,0,1-.755,1.619,16.957,16.957,0,0,1-.917,1.51,16.34,16.34,0,0,1-1.023,1.349,13.515,13.515,0,0,1-1.075,1.137c-.169.158-.361.32-.588.5-.2.156-.413.309-.617.456h0c-.249.18-.505.365-.749.56-.131.1-.248.2-.358.3s-.233.218-.338.328c-.128.135-.264.278-.4.406a3.409,3.409,0,0,1-.4.334,1.8,1.8,0,0,1-.432.227,1.476,1.476,0,0,1-.237.062,1.508,1.508,0,0,1-.256.022h0Z" transform="translate(-217.42 -112.759)" fill="#ed6a5a"/></g></svg>