<svg xmlns="http://www.w3.org/2000/svg" width="570" height="520"><defs><clipPath id="b"><path transform="translate(327 163)" fill="none" stroke="#707070" d="M0 0h500v520H0z"/></clipPath><clipPath id="c"><path d="M185.885 7.778c38.286 0 82.258 5.16 114.393 30.548 42.88 33.878 68.576 95.184 68.576 146.143 0 89.246-117.958 179.385-207.2 179.385-45.495 0-91.28-26.63-123.861-64.051C21.8 281.445 8.984 260.366 1.063 238.6c-3.244-8.913 3.233-14.246 3.59-22.725C5.087 205.578 0 192.137 0 180.22c0-37.7 17.242-74.314 43.983-104.134 6.623-7.386-19.289-15.173-11.557-21.667C46.415 42.67 58.823 1.589 77.559.018c11.76-.986 62.9 38 73.9 35.018 13.881-3.77 20.441-27.258 34.426-27.258z" transform="rotate(57 152.505 280.921)" fill="#f0f1e9"/></clipPath><clipPath id="a"><path d="M0 0h570v520H0z"/></clipPath></defs><g clip-path="url(#a)"><g transform="translate(-315 -163)" clip-path="url(#b)"><path d="M772.471 394.825c48.64 74.878-.88 207.027-75.756 255.665s-214.789-1.196-263.43-76.076c-42.51-65.442-17.517-159.386 39.567-214.61a176.152 176.152 0 0126.403-21.096c74.878-48.64 224.579-18.758 273.216 56.117z" fill="#f0f1e9"/><g transform="translate(345.312 240.481)" clip-path="url(#c)"><path d="M395.795 287.273h9.335l-16.335 149.848h-6.418z" fill="#845d3d"/><path fill="#7c653c" d="M291.082 331.881h77.534v5.85h-77.534z"/><path d="M325.095 437.164l6.842-104.735 3.459-2.007-7.876 106.742zM370.489 329.556l8.2-46.31-3.171-.894-7.592 47.6zM375.946 437.164l-6.847-104.736-3.461-2.007 7.877 106.743z" fill="#7c653c"/><path d="M334.563 437.164l-6.842-104.736-3.461-2.007 7.873 106.742zM283.713 437.164l6.842-104.735 3.458-2.007-7.874 106.742z" fill="#7c653c"/><path d="M322.42 327.675l8.2-46.31-3.169-.9-7.592 47.6z" fill="#c6ac71"/><path d="M385.655 285.344a13.123 13.123 0 01-12.863 10.521h-36.716a11.573 11.573 0 01-11.319-13.981l18.4-86.46a12.686 12.686 0 0110.128-9.837c16.61-3.031 28.844-3.726 41.936-1.07a10.631 10.631 0 018.3 12.527zM369.323 334.142a4.861 4.861 0 00-1.415-9.512h-78.581a4.5 4.5 0 00-1.831 8.6 15.7 15.7 0 006.461 1.269h72.98a7.591 7.591 0 002.386-.357z" fill="#efe2c2"/><path d="M380.951 285.346a13.124 13.124 0 01-12.863 10.519h-36.716a11.575 11.575 0 01-11.319-13.981l18.4-86.459a12.688 12.688 0 0110.127-9.837c16.61-3.032 28.844-3.727 41.935-1.07a10.631 10.631 0 018.3 12.528z" fill="#ddca9f"/><g fill="#ddca9f"><path d="M366.938 334.505h.226-.226zM284.919 328.189a4.5 4.5 0 014.4-3.559h42.636a4.5 4.5 0 00-1.834 8.606 15.71 15.71 0 006.458 1.269H293.95a15.7 15.7 0 01-6.463-1.269 4.5 4.5 0 01-2.568-5.047z"/></g><path d="M293.454 173.737c-8 12.18-18.543 66.523-32 77.471-9.054 7.362 3.643 26.735 15.461 25.866 7.295-.536 25.116-18.483 27.548-40.707s2.735-83.566-11.009-62.63z" fill="#b8c462"/><path d="M289.828 235.741c-3.133-33.644 2.727-60.634 3.626-62 13.744-20.936 14.506 42.481 12.078 64.7s-21.324 38.1-28.619 38.636a11.857 11.857 0 01-4.519-.595c8.385-5.998 18.94-24.566 17.434-40.741z" fill="#99a03d"/><path d="M266.392 437.553h-23.186s16.794-10.7 21.422-8.118 1.764 8.118 1.764 8.118z" fill="#ddc4ab"/><path d="M96.249 287.273h-9.335l16.334 149.848h6.42zM171.898 287.273h-8.987l15.721 149.848h6.178z" fill="#845d3d"/><path fill="#845d3d" d="M96.785 331.5h74.287v4.292H96.785z"/><path d="M223.072 327.637h78c19.763 0 37.022-24 33.591-31.885-2.764-6.333-27.062-17.055-34.456-10.946a22.467 22.467 0 01-16.257 5.046c-19.031.858-63.076 17.6-63.076 17.6z" fill="#5e3f3d"/><path d="M236.762 301.791c.2 4.565 12.752 5.974 28.2 3.127 15.556-2.863 28.134-8.951 28.107-13.594a2.821 2.821 0 00-1.192-2.178 21.877 21.877 0 008.333-4.339c7.394-6.11 31.692 4.612 34.456 10.946 3.431 7.882-13.829 31.885-33.591 31.885h-78l-2.2-20.182s6.649-2.527 15.887-5.665z" fill="#4c2e2d"/><path d="M181.372 437.553h-23.186s16.794-10.7 21.43-8.118 1.756 8.118 1.756 8.118z" fill="#ddc4ab"/><path d="M208.124 325.328c1.894-4.456 12.051-19.929 14.69-18.1s7.366 31.766 4.163 43.206-45.079 81.97-45.079 81.97l-3.678-.908s26.587-98.395 29.904-106.168z" fill="#4c2e2d"/><path d="M349.691 317.331c10.733 6.87 35.34-81.854 9.635-136.62-7.105-15.125-37.845-36.354-56.385-19.493-7.887 7.169-19.134 19.038-9.5 62.942 11.315 51.573-4.191 65.578-4.191 65.578s32.45 9.678 60.441 27.593z" fill="#b8c462"/><path d="M296.653 243.039c9.741 31.21 44.828 23.427 44.8 10.05-.1-48.12 9.673-56.4 19.183-69.355 23.476 54.941.027 141.462-10.509 134.718-28-17.913-62.229-28.84-62.229-28.84s12.697-11.444 8.755-46.573z" fill="#99a03d"/><path d="M348.556 222.577l1.673 11.495-36.989 3.136-19.821-13.149a188.15 188.15 0 01-2.168-11.509l20.94 16.715z" fill="#d4db77"/><path d="M315.746 186.211l30.3-20.692s-21.927-19.9-47.494-.991z" fill="#fbffc0"/><path d="M316.948 180.465l25.472-17.57s-18.312-15.138-36.742-.464c-4.818 3.835 11.27 18.034 11.27 18.034z" fill="#ffdeb3"/><path d="M341.102 163.614s-5.369-35.856-12.448-55.173l-15.676 5.363.214 46.371z" fill="#ffdeb3"/><path d="M262.868 325.822h70.43c18.427 0 23.649-18.215 20.446-26.094-4.621-11.35-33.395-10.013-36.187-9.876-17.739.857-57.41 17.041-57.41 17.041z" fill="#5e3f3d"/><path d="M276.736 300.648c6.906 6.153 25.228 9.409 46.357 7.526 12.069-1.074 22.922-3.642 31.1-7 2.138 8.63-3.283 26.459-20.673 26.459h-72.707l-2.05-20.182s7.75-3.158 17.973-6.803z" fill="#4c2e2d"/><path d="M252.292 325.328c.229-4.456 4.61-19.929 7.927-18.1s19.229 31.766 20.3 43.206-14.466 81.97-14.466 81.97l-4.02-.913s-10.143-98.39-9.741-106.163z" fill="#4c2e2d"/><path d="M89.491 285.131h322.03l-2.148 14.6H89.491z" fill="#b78f6a"/><path d="M87.424 285.131h243.263l-1.608 14.6H89.491z" fill="#845d3d"/><path d="M401.754 287.273h9.334L394.75 437.121h-6.415zM326.103 287.273h8.983L319.37 437.121h-6.179z" fill="#b78f6a"/><path d="M322.026 287.273h8.987l-15.722 149.848h-6.177z" fill="#845d3d"/><path fill="#b78f6a" d="M327.788 331.498h74.286v4.296h-74.286z"/><path d="M374.106 276.601c2.783-2.818 11.76-70.7-20.551-104.834-6.21-6.56-14.062 3.551-13.1 29.629s11.041 46.681 6.534 52.474c-3.536 4.554 17.991 31.962 27.117 22.731z" fill="#b8c462"/><path d="M340.401 211.711c2.581 9.5 7.945 29.422 9.09 31.818 2.3 4.808 9.25-.469 19.908 7.993 5.22 4.142 3.724-32.251-2.155-58.72 15.9 35.52 10.118 82.2 7.831 84.513-9.117 9.23-32.664-18.527-29.13-23.076 3.201-4.114-2.819-26.731-5.544-42.528z" fill="#99a03d"/><path d="M363.422 282.109c3.4.7 12.55-.885 14.361-5.61 1.589-4.15-2.449-16.336-8.085-22.027-5.863-5.911-16.2-9.307-21.506-4.308-5.343 5.029-2.278 11.774-2.278 11.774s8.59 18.318 17.508 20.171z" fill="#fbffc0"/><path d="M352.301 254.105c6.66.206 16.8 7.066 18.519 1.627 5.042 6.075 8.446 16.9 6.964 20.772-1.811 4.725-10.956 6.315-14.361 5.61-8.918-1.853-17.509-20.172-17.509-20.172a11.1 11.1 0 01-.664-2.3c-.118-3.553 2.28-5.693 7.051-5.537z" fill="#f4f0a8"/><path d="M288.688 280.92l75.338-1.287s9-3.32 8.356-8.149-11.233-18.75-17.031-19.714-67.471 26.727-67.471 26.727z" fill="#ffdeb3"/><path d="M361.935 271.062c3.121-3.9-1.552-12.2-7.249-19.3a2.833 2.833 0 01.664.007c5.8.965 18.031 15.95 18.679 20.779s-9.023 8.37-9.023 8.37h-76.318l-.277-.822c13.199-.784 69.83-4.413 73.524-9.034z" fill="#f9ad8f"/><path d="M289.203 262.494c-1.675-4.808-12.539-19.852-24.87-15.254l15.677 22.779z" fill="#99a03d"/><path d="M270.97 279.266c3.131.8 12.067-.629 14.19-5.47 1.857-4.226-1.18-16.317-6.04-21.648s-13.637-7.995-18.655-3.292a11.068 11.068 0 00-3.131 10.816s5.641 17.557 13.636 19.594z" fill="#fbffc0"/><path d="M263.604 252.305c5.815 0 14.44 6.262 16.464 1.01 4.293 5.753 6.824 16.539 5.092 20.481-2.123 4.841-11.059 6.27-14.19 5.47-7.995-2.037-13.637-19.593-13.637-19.593a9.943 9.943 0 01-.33-2.11c.273-3.248 2.528-5.258 6.601-5.258z" fill="#f4f0a8"/><path d="M209.998 281.233l61.29-.831s6.346-4.731 6.735-8.974-7.512-17.475-12.225-18.318-56.679 25.864-56.679 25.864z" fill="#ffdeb3"/><path d="M264.855 273.782c4.506-1.232 5.65-10.744 4.252-18.69 4.7 4.189 10.377 13.744 10.063 17.113-.389 4.239-7.389 9.028-7.389 9.028h-61.784l-.168-.423c12.911-1.41 49.363-5.487 55.026-7.028z" fill="#f9ad8f"/><path d="M80.214 280.405l339.511-.006-1.4 5.49-4.083 3.1H85.074l-2.572-2.559z" fill="#ddc4ab"/><path d="M156.546 277.542h49.846l-2.2 5.642h-49.843z" fill="#d8c59c"/><path d="M114.696 133.556h113.908l24.048 126.665-111.211.006z" fill="#efe2c2"/><path d="M141.287 258.816h111.1l.267 1.409-111.211.006-26.747-126.675h.14z" fill="#d8c59c"/><path d="M136.225 235.534l-21.529-101.978h113.908l19.355 101.978z" fill="#663d24" opacity=".499"/><path d="M109.05 133.556h113.915l24.042 126.665-111.211.006z" fill="#d8c59c"/><path d="M232.567 259.78h-41.8l-71.475-126.235h28.419z" fill="#e2cfaa"/><path d="M203.1 156.221c-21.578-14.7-70.918-19.534-93.7-21.019l-.346-1.646h113.91l24.042 126.665h-.351c-8.353-39.863-19.346-87.502-43.555-104z" fill="#d6b887"/><path d="M182.663 281.096h-26.622l12.453-41.48h15.455z" fill="#d8c59c"/><path d="M180.782 281.096h-26.62l12.448-42.9h15.459z" fill="#efddb9"/><g fill="#ffdeb3"><path d="M195.536 275.253c4.557-.9 14.963 1.454 19.906 1.713l-.4 3.806c-6.305.655-14.521 3.84-16.621 3.025-.724-.284-4.449-8.237-2.885-8.544z"/><path d="M200.999 283.542c-2.141.462-7.388 3.35-7.884 2.387-.766-1.5 3.488-3.24 5.9-4.322 3.131-1.414 1.984 1.935 1.984 1.935zM197.091 277.488c-2.189.09-9.035 1.073-9.375.031-.6-1.808 6.874-2.554 9.108-2.489 3.424.101.267 2.458.267 2.458zM199.012 275.825c2.527-3.122-3.576-4.438-3.23-6.493.472-2.852 8.37 3.58 10.578 6.227 2.178 2.598-7.348.266-7.348.266zM197.814 280.669c-2.136.406-9.314 2.241-9.8 1.258-.759-1.537 6.485-3.108 8.67-3.669 3.315-.857 1.13 2.411 1.13 2.411z"/></g><g fill="#ffdeb3"><path d="M276.206 275.041c4.559-.9 14.965 1.457 19.91 1.712l-.4 3.811c-6.305.655-14.52 3.839-16.62 3.023-.724-.282-4.45-8.235-2.89-8.546z"/><path d="M281.674 283.335c-2.146.464-7.389 3.351-7.885 2.387-.772-1.5 3.488-3.24 5.892-4.322 3.144-1.42 1.993 1.935 1.993 1.935zM277.763 277.282c-2.188.085-9.035 1.072-9.38.027-.593-1.8 6.879-2.553 9.113-2.486 3.426.101.267 2.459.267 2.459zM279.68 275.617c2.527-3.122-3.572-4.438-3.226-6.491.472-2.855 8.37 3.58 10.578 6.226 2.174 2.597-7.352.265-7.352.265zM278.488 280.461c-2.136.406-9.314 2.241-9.8 1.259-.759-1.539 6.485-3.108 8.671-3.672 3.308-.854 1.129 2.413 1.129 2.413z"/></g><path d="M270.394 280.886h-54.756l-.211-4.18 35.321-.416 19.645 2.506z" fill="#efddb9"/><path d="M249.911 280.886h-34.273l-.211-4.18 35.321-.416z" fill="#a38957"/><path d="M335.766 280.402l-2.407 8.59H85.075l-2.572-2.559-2.292-6.029z" fill="#c49a78"/><path d="M298.555 164.529a49.06 49.06 0 013.041-2.062c.452-.431.908-.848 1.345-1.249a23.186 23.186 0 0110.231-5.464l-.12-25.857 16.066-16.312 1.947 2.271c4.948 16.768 8.7 39.3 9.741 45.871.51.342.907.629 1.179.833a48.914 48.914 0 014.06 2.961l-30.3 20.7z" fill="#fff" opacity=".5" style="mix-blend-mode:multiply;isolation:isolate"/><path d="M333.767 124.716s4.325-36.832 1.32-40.267-12.235-4.935-14.594-4.076c0 0-9.232-6.656-17.177-4.3s-23.615 7.3-25.977 24.9c0 0 1.291 9.876 14.6 31.127s41.828-7.384 41.828-7.384z" fill="#aa844e"/><path d="M321.807 92.953c0-4.374 3.517-6.288-1.359-12.56 2.01-1.332 11.712.706 14.638 4.056 3.005 3.435-.482 39.285-.482 39.285s-20.3 22.987-34.714 15.831c12.735-6.562 21.917-24.931 21.917-46.612z" fill="#6d4c25"/><path d="M289.792 153.308s1.931-16.589-3.649-31.016-8.59-21.636 3-27.042 27.911-13.7 35.209 8.293-2.575 49.41-2.575 49.41z" fill="#ffdeb3"/><path d="M289.948 141.381s-.933 8.282-1.872 14.931c-.608 4.248 5.369 15.454 22.431 11.915s23.257-18.9 21.644-30.818-3.613-26.507-1.357-27.472-4.507-24.044-4.507-24.044l-12.165-7.885s9.851 56.407 3.714 60.888c-11.92 8.697-27.888 2.485-27.888 2.485z" fill="#aa844e"/><path d="M325.572 129.56c-1.965-15.573 2.437-39.067-4.785-48.8l6.871 5.084s6.536 24.711 4.284 25.66-.5 14.947 1.107 26.613c1.608 11.635-5.436 26.547-22.391 30.079 3.279-1.7 17.002-3.524 14.914-38.636z" fill="#6d4c25"/><path d="M314.687 90.177s-21.034 5.793-41.217 2.785c0 0 18.247-7.514 35.209-8.8s9.443 4.507 6.008 6.015z" fill="#aa844e"/><path d="M315.487 83.67s-20.567 7.31-40.91 5.78c0 0 7.441-4.2 24.262-6.719s19.963-.81 16.648.939z" fill="#aa844e"/><path d="M312.678 80.867s-16.676 6.279-32.908 3.736c0 0 6.08-3.827 19.617-5.5s15.995.185 13.291 1.764zM311.26 116.006s-9.063 1.777-10.491.984a2.165 2.165 0 01-.544-3.127c.559-.515 9.958-.888 10.508-.708s2.242 2.072.527 2.851z" fill="#aa844e"/><path d="M307.606 122.112a1.546 1.546 0 00-2.553.537c-.132.949.53 3.751 2.389 2.844 1.57-.782.932-2.521.164-3.381z" fill="#77552c"/><path d="M331.273 130.366c3.401-.029 16.622-4.727 12.864-10.94-2.479-4.094-11.196-2.364-13.606.112s-2.659 10.855.742 10.828z" fill="#ffdeb3"/><path d="M331.723 127.733c.474 1.543 10.772-2.36 8.5-6.118-1.499-2.479-6.773-1.431-8.229.067s-.598 5.002-.27 6.051z" fill="#ef8f6f"/><path d="M331.754 129.07c.522.82 5.868-3.118 3.938-4.928-1.266-1.196-4.163.267-4.764 1.372s.469 3.002.826 3.555z" fill="#ffdeb3"/><path d="M163.653 180.358a8.249 8.249 0 014.781 1.675 7.575 7.575 0 00-2.9-.631c-4.355 0-7.161 4.185-6.276 9.353a12.164 12.164 0 004.722 7.677 11.714 11.714 0 01-6.6-8.718c-.891-5.166 1.92-9.356 6.273-9.356z" fill="#d6b887"/><path d="M285.798 121.43a54.329 54.329 0 012.9 9.644 94.564 94.564 0 011.281 10.348s7.017 2.749 13.633 1.077c.294-4.618-5.119-20.228-10.2-23.094a5.274 5.274 0 00-7.614 2.025z" fill="#ebc497" opacity=".699"/><path d="M296 124.576s-5.74 16.778-3.432 21.88 12.497.013 14.544-2.341S296 124.575 296 124.575z" fill="#966e3e"/><path d="M296.591 120.772s-4.382 18.137-2.435 23.655 9.149 1.21 10.281-1.835-7.846-21.82-7.846-21.82z" fill="#ffdeb3"/><path d="M286.108 122.092s7.9-2.148 8.354-3.327c.428-1.1-1.1-2.48-1.881-2.665s-7.9 3.194-8.166 3.549-.122 2.501 1.693 2.443z" fill="#aa844e"/><path d="M299.619 150.647l13.908-5.394s.378 12.645-4.643 13.466-9.265-8.072-9.265-8.072z" fill="#6d4c25"/><path d="M301.398 151.537l1.831 1.458 8.29-2.279.649-3.185z" fill="#fdf2e3"/></g><path d="M623.37 677.922a206.637 206.637 0 01-27.279-1.872 242.059 242.059 0 01-27.666-5.4 266.647 266.647 0 01-27.356-8.6 273.937 273.937 0 01-26.351-11.465 261.425 261.425 0 01-24.64-14.012 231.926 231.926 0 01-22.241-16.228 192.438 192.438 0 01-19.141-18.116 151.481 151.481 0 01-15.344-19.676 129.77 129.77 0 01-16.87-38.789 150.367 150.367 0 01-4.374-42.079 145.37 145.37 0 005.791 36.4 129.113 129.113 0 0015.452 33.642 151.476 151.476 0 0015.344 19.676 192.443 192.443 0 0019.143 18.113 231.93 231.93 0 0022.24 16.228 261.439 261.439 0 0024.64 14.012 273.944 273.944 0 0026.348 11.469 266.689 266.689 0 0027.356 8.6 242.094 242.094 0 0027.666 5.4 206.639 206.639 0 0027.28 1.872 158.509 158.509 0 0039.108-4.633 114.5 114.5 0 0034.17-14.661 175.631 175.631 0 0036.823-32.718 227.108 227.108 0 0015.892-20.75 249.96 249.96 0 0013.814-22.907 258.488 258.488 0 0011.443-24.49 250.966 250.966 0 008.761-25.486 213.555 213.555 0 008.292-51.661c1.061 34.068-8.115 72.188-25.836 107.336a252.662 252.662 0 01-14.107 24.487 230.777 230.777 0 01-16.466 22.2 197.544 197.544 0 01-18.476 19.23 160.5 160.5 0 01-20.137 15.587 114.506 114.506 0 01-34.17 14.661 158.526 158.526 0 01-39.109 4.63z" fill="#663d24"/><path d="M638.244 365.462a1.322 1.322 0 00-2.227.623c-.2 1.106.657 3.095 1.99 2.547s.765-2.482.237-3.17z" fill="#77552c"/><g><path d="M408.237 286.9c11.043 1.478 75.957 4.64 128.56 7.013 15.084 27.084 56.505 51.07 56.505 51.07-5.621-7.262-14.325-35.4-18.424-49.4 13.422.561 23.7.97 28.546 1.149 23.784.888 23.039-15.06 23.039-15.06s-.415-63.523.986-87.38c1.38-23.874-16.848-20.963-16.848-20.963s-162.9-.835-184.693-3.4c-21.809-2.586-22.526 16.07-22.526 16.07l-10.646 76.7s-2.068 21.839 15.501 24.201z" fill="#fafaf8"/><path d="M392.43 243.681l6-43.249c.876-6.316 1.175-13.1 2.886-19.281 3.379-12.2 15.664-13.541 26.6-12.615 10.351.875 20.794.988 31.174 1.257 32.206.832 64.429 1.161 96.642 1.472q26.252.253 52.5.4c2.736.015 7.326-.024 11.41 1.449 11.8 4.261 10.78 18.033 10.374 28.017-1.078 26.569-.839 53.221-.694 79.808.126 23.426-34.966 17.491-51.222 16.384 4.493 15.6 8.405 34.318 17.854 47.657 1.566 2.209-3.512 1.4-4.308.935a231.126 231.126 0 01-26.836-18.675 163.039 163.039 0 01-20.229-18.972 96.654 96.654 0 01-7.884-10.193c-3.066-4.506-9.848-3.043-14.977-3.279-37.252-1.711-75.368-1.651-112.415-6.224a5.2 5.2 0 01-.773-.09 3.8 3.8 0 01-.641-.144c-22.691-4.773-17.798-27.848-15.461-44.657zm15.374 41.7c37.29 4.668 75.677 4.584 113.188 6.314 5.067.234 11.324-.438 16.217.849 2.577.677 3.361 3.327 4.649 5.364 5.706 9.024 13.688 16.625 21.719 23.646a205.3 205.3 0 0023.593 17.783c-7.366-13.335-10.868-29.983-15-44.042-.265-.9 1.053-1.285 1.7-1.259 13.466.561 46.188 7.7 49.77-11.139 1.545-8.128.088-17.62.093-25.829.01-17.336.09-34.675.572-52 .33-11.826 2.842-30.14-12.677-30.222-51.75-.269-103.525-.591-155.256-2.011-6.528-.178-13.054-.4-19.577-.7-7.118-.329-15.214-2.069-21.887.668-9.674 3.969-9.369 17.686-10.552 26.207l-7.226 52.078c-1.569 11.3-5.627 31.185 10.673 34.288z" fill="#222c25"/><path d="M424.174 203.003q-.003.075.096.116a1.176 1.176 0 00.358.05l.333.012a2.112 2.112 0 00.646-.036q.142-.054.228-.352l.108-.642.113-.749q.124-.696.25-1.426t.285-1.425l.298-1.44-.02-.055-.074-.013a6.4 6.4 0 00-.953 2.063l-.119.318q-.498 1.358-1.008 2.415zm-1.315 3.256q-.183-.007-.595 1.01-.188.467-.38.906t-.356.788l-.294.7a.619.619 0 01-.629.478l-.353-.024-.5-.028a4.218 4.218 0 01-1.076-.683l-.098-.068-.115-.09a.415.415 0 01-.214-.34 21.364 21.364 0 011.682-4.151q.825-1.756 1.904-3.89t2.31-4.421q.113-.196.298-.57l.359-.718q.763-1.532 1.611-1.503a4.044 4.044 0 01.674.088q.182.038.358.087a3.019 3.019 0 01.345.12q.477.166 1.106.338a5.611 5.611 0 01.694.186 1.542 1.542 0 01.576.439.992.992 0 01.171.618l-.455 3.5q-.076.62-.308 2.19t-.343 2.453q-.146 1.316-.184 2.412l-.135 1.564q-.038 1.084-.225 1.207a3.775 3.775 0 01-.824.371 2.587 2.587 0 01-.826.096l-.504-.018a1.4 1.4 0 01-.746-.187.772.772 0 01-.192-.652l.008-.226.024-.376.02-.278-.038-.432-.027-.775a.167.167 0 00-.028-.12l-.086-.023a21.41 21.41 0 00-2.215.03l-.2.014-.118-.015zm15.387-3.94q-.128.275-.21.487-.211.52-.59 1.48a40.507 40.507 0 01-1.729 3.97l-.455 1.039q-.353.88-.557.873a5.962 5.962 0 01-.745-.22l-1.773-.62a1.1 1.1 0 01-.443-.246.455.455 0 01-.128-.338q.014-.419.076-.943t.105-.878a12.1 12.1 0 01.15-1.445q.186-1.016.27-1.539l.98-5.942.254-1.523q.117-.7.213-1.16l.014-.085q.123-.673 1.376-.63a5.9 5.9 0 01.617.054 5.439 5.439 0 01.666.141q.684.153.722.262l.055.238.024.237q-.005.14-.583 2.366l-1.021 4.006q-.1.404-.23.867t-.267.856l-.255.84a.482.482 0 00.01.151.129.129 0 00.037.06.065.065 0 00.031.018 8.4 8.4 0 001.09-2.274q.894-2.226 1.754-4.055l.396-.887q.667-1.567 1.323-1.544a2.788 2.788 0 01.795.307l1.134.47a.369.369 0 01.23.142.593.593 0 01.09.288l-.293 1.322-.575 2.625-.763 3.704.027.15a.135.135 0 00.036.045.082.082 0 00.037.022q.142-.36.249-.646.26-.7.703-1.964a41.081 41.081 0 012.225-5.226l.231-.465q1.04-2.07 1.573-2.051a3.354 3.354 0 011.448.384q.688.357.676.7a13.886 13.886 0 01-.937 2.225q-.5 1.083-.78 1.674-.603 1.28-1.147 2.4-.775 1.573-1.54 3.148-.474.972-.87 1.85-.454.995-.886 1.99l-.176.414-.023.063q-.183.628-1.01.6a4.872 4.872 0 01-1.13-.271 6.35 6.35 0 01-1.324-.579.731.731 0 01-.23-.191.342.342 0 01-.067-.218l.104-.803q.044-.363.102-.796t.138-.882q.044-.32.151-.768t.315-1.15q.207-.702.31-1.172a4.578 4.578 0 00.113-.791.229.229 0 00-.017-.12.158.158 0 00-.096-.046zm8.776 8.186a3.531 3.531 0 01-1.186-.982 1.911 1.911 0 01-.319-1.178 26.44 26.44 0 01.71-2.958q.698-2.577 1.761-5.942l.546-1.776q.861-2.819 1.108-2.81l.192.027.183.028.118-.017.184-.015.578.064.653.065q.107.004.333.001t.56-.024l1.065-.016q.375.013.54.035t.686.104a6.584 6.584 0 011.028.252.774.774 0 01.56.476 2.706 2.706 0 01.119 1.042q-.008.215-.023.333a4.182 4.182 0 01-.09.416 1.544 1.544 0 01-.123.469 6.172 6.172 0 01-1.76.228l-1.346.077q-.647.037-1.25.102l-.455 1.328q-.17.563-.312 1.225l.483.006.548.008q.4.014.73.036t.744.08q.412.058.473.146a2.355 2.355 0 01.453 1.36 3.055 3.055 0 01-.167.767l-.18.542a5.7 5.7 0 01-1.74.305q-1.586.16-2.418.291l-.305 1.121a5.851 5.851 0 00-.202.875l-.003.075.039.12 1.914-.034.796-.004.225.04a.137.137 0 01.084.057.031.031 0 00.01.021l-.007.183.36.475a1.682 1.682 0 01.337 1.112 2.06 2.06 0 01-.147.839q-.126.226-.577.21h-.043a5.8 5.8 0 00-1.28.174 10.064 10.064 0 01-1.28.219l-.314.032a14.222 14.222 0 00-2.594.393zm7.856-4.348a12.2 12.2 0 011.122-.616 1.485 1.485 0 01.598-.172q.44.015.527.287l.058.175a2.9 2.9 0 00.695 1.19 1.489 1.489 0 001.01.45 1.067 1.067 0 00.776-.327 1.234 1.234 0 00.362-.847q.017-.473-1.13-1.802l-.592-.675a4.892 4.892 0 01-.833-1.384 4.581 4.581 0 01-.201-.727 3.36 3.36 0 01-.05-.722 5.686 5.686 0 01.862-2.813 8.515 8.515 0 012.353-2.427 6.122 6.122 0 011.172-.642 2.553 2.553 0 01.933-.252 2.667 2.667 0 011.271.538l.463.296.348.195a2.513 2.513 0 011.287 2.528 5.148 5.148 0 01-.519 2.255q-.47.884-1.13.86a3.532 3.532 0 01-.558-.062q-.267-.052-.427-.09-.297-.074-.532-.142a1.889 1.889 0 01-.297-.102.53.53 0 01-.271-.224 1.254 1.254 0 01-.057-.519l.01-.3q.012-.343.034-.493t.086-.47l.123-.662a.149.149 0 00-.054-.13.455.455 0 00-.186-.071q-.258-.01-.819.68a3.094 3.094 0 00-.4.696 2.122 2.122 0 00-.155.725q-.03.87 1.33 2.248l.446.456a5.541 5.541 0 011.062 1.437 2.874 2.874 0 01.292 1.343 5 5 0 01-1.643 3.485 4.641 4.641 0 01-3.474 1.464 4.093 4.093 0 01-2.822-1.232 3.562 3.562 0 01-1.135-2.754l.05-.498zm14.612 5.135a2.735 2.735 0 01-.97-.26l-.18-.081-.074-.024-.376-.013-.32-.043a1.042 1.042 0 01-.297-.096 3.26 3.26 0 01-1.625-1.658 6.488 6.488 0 01-.452-2.902 12.287 12.287 0 01.967-3.996 17.266 17.266 0 012.286-4.098l.292-.377q1.972-2.586 3.249-2.541l.225.019.344.023a4.191 4.191 0 011.18.331l.446.166a3.542 3.542 0 011.958 1.637 5.743 5.743 0 01.558 2.964 13.361 13.361 0 01-.396 2.76 13.651 13.651 0 01-.97 2.674 15.831 15.831 0 01-1.658 2.726 9.864 9.864 0 01-1.824 1.903 5.2 5.2 0 01-1.14.649 2.583 2.583 0 01-1.03.243zm-.829-4.575a2.67 2.67 0 00.13 1.058.53.53 0 00.476.393q.376.013.857-.53a5.577 5.577 0 00.513-.675q.266-.405.599-.995a16.266 16.266 0 001.304-2.975 11.039 11.039 0 00.316-1.344 10.328 10.328 0 00.15-1.396 4.185 4.185 0 00-.123-1.327q-.15-.483-.44-.493-.128-.005-.56.533a13.583 13.583 0 00-.98 1.444 16.9 16.9 0 00-1.576 3.401 10.946 10.946 0 00-.665 2.906zm10.28 4.776l-.279.002-.2.004a3.266 3.266 0 01-1.422-.501l-.56-.299q-.062-.034-.105-.204a1.327 1.327 0 01-.035-.372 8.989 8.989 0 01.276-1.442q.124-.49.353-1.331t.521-1.831q.552-1.959.662-2.32.28-.97.68-2.309.114-.383.705-2.308l.243-.808a2.023 2.023 0 01.574-1.05 1.35 1.35 0 01.967-.315 5.588 5.588 0 011.112.173q.64.157 1.914.6a.342.342 0 01.158.112.709.709 0 01.045.238q-.003.1-.058.449t-.168.946q-.111.596-.207 1.169a8.255 8.255 0 00-.112 1.05 9.294 9.294 0 01-.112 1.06q-.097.63-.152.973l-.155 1.037.03.076a.131.131 0 00.099.036 15.474 15.474 0 001.037-2.319q.482-1.184.96-2.235t.985-2.05l.541-1.182q.316-.73.82-.713a5.237 5.237 0 011.463.32q.477.157.848.315a6.418 6.418 0 01.74.375.77.77 0 01.374.744l-.12.36a20.055 20.055 0 00-.764 2.64q-.325 1.461-.795 3.229-.272 1.044-.335 1.278l-.38 1.351q-.037.14-.437 1.436l-.714 2.36-.39 1.32q-.037.128-.265.184a2.475 2.475 0 01-.647.041 4.224 4.224 0 01-1.43-.297q-.678-.27-.669-.518l.422-1.307q.446-1.306.828-2.625t.67-2.234q.284-.915.672-2.051l.671-2.04a.185.185 0 00-.039-.12l-.062-.056q-.064-.002-1.533 3.149t-3.272 6.431a.51.51 0 01-.117-.015 1.775 1.775 0 01-.19-.081 1.2 1.2 0 00-.33-.098l-.087.008-.086.008a1.053 1.053 0 01-.372-.12l-.34-.152a.311.311 0 01-.21-.125.963.963 0 01-.021-.301l.023-.677.023-.978.03-1.16q.047-1.353.283-3.31t.246-2.26a.285.285 0 00-.027-.162.245.245 0 00-.147-.07 14.013 14.013 0 00-.51 2.284q-.214 1.185-.439 2.231t-.509 2.122l-.396 1.487a17.867 17.867 0 00-.534 2.357l-.004.117zm13.405.597a3.531 3.531 0 01-1.186-.981 1.912 1.912 0 01-.319-1.178 26.44 26.44 0 01.713-2.958q.697-2.577 1.76-5.942l.546-1.776q.862-2.82 1.109-2.81l.192.027.182.028.119-.017.183-.015.578.063.653.066q.107.004.334 0t.56-.023l1.064-.017q.376.014.541.035t.685.105a6.584 6.584 0 011.029.251.774.774 0 01.558.477 2.706 2.706 0 01.12 1.042q-.007.215-.022.332a4.183 4.183 0 01-.09.417 1.544 1.544 0 01-.124.469 6.172 6.172 0 01-1.76.228l-1.346.077q-.647.037-1.25.102l-.455 1.328q-.17.563-.312 1.225l.483.005.548.009q.4.013.73.036t.744.08q.412.057.473.146a2.355 2.355 0 01.453 1.36 3.054 3.054 0 01-.167.767l-.18.542a5.7 5.7 0 01-1.74.304q-1.586.16-2.418.292l-.304 1.118a5.85 5.85 0 00-.203.875l-.003.075.04.12 1.914-.034.795-.004.225.04a.137.137 0 01.084.056.031.031 0 00.01.022l-.006.183.36.475a1.682 1.682 0 01.337 1.112 2.061 2.061 0 01-.147.838q-.126.227-.577.211l-.043-.001a5.8 5.8 0 00-1.28.175 10.064 10.064 0 01-1.281.219l-.314.032a14.222 14.222 0 00-2.594.393zm15.521-14.444a.885.885 0 01-.213.393 2.611 2.611 0 00-.278.42l-.283.7-.472 1.199q-.109.254-.801 2.025-.117.296-.72 1.856l-.65 1.686-.024.074-.12.35q-.47 1.349-1.11 1.326a3.234 3.234 0 01-1.063-.214q-.503-.194-.495-.431a18.375 18.375 0 01.438-2.392q.42-1.887 1.04-4.017.04-.181.057-.24t.113-.356q1.21-4.214 2.242-4.178a2.719 2.719 0 011.475.729q.877.708.864 1.07zm-6.391 14.612a1.554 1.554 0 01-1.111-.517 1.461 1.461 0 01-.446-1.074 2.669 2.669 0 01.83-1.75 2.107 2.107 0 011.53-.812 2.243 2.243 0 011.317.427 1.141 1.141 0 01.503.98 2.989 2.989 0 01-.814 1.9 2.238 2.238 0 01-1.81.846zm15-6.033q-.002.075.096.116a1.176 1.176 0 00.359.051l.333.012a2.112 2.112 0 00.646-.037q.142-.054.228-.352l.108-.642.112-.748q.125-.696.25-1.426t.286-1.425l.298-1.44-.02-.055-.067-.013a6.4 6.4 0 00-.954 2.063l-.118.318q-.499 1.359-1.009 2.415zm-1.314 3.256q-.183-.006-.595 1.011-.188.467-.38.905t-.356.788l-.294.7a.619.619 0 01-.629.478l-.353-.023-.5-.029a4.218 4.218 0 01-1.076-.683l-.098-.067-.115-.09a.415.415 0 01-.214-.341 21.364 21.364 0 011.68-4.15q.824-1.755 1.903-3.889t2.31-4.422q.114-.196.3-.57l.357-.718q.763-1.532 1.612-1.503a4.044 4.044 0 01.674.088q.182.038.357.088a3.019 3.019 0 01.345.119q.478.166 1.106.338a5.611 5.611 0 01.694.186 1.542 1.542 0 01.576.44.992.992 0 01.172.618l-.456 3.499q-.075.62-.307 2.19t-.338 2.45q-.153 1.317-.191 2.412l-.13 1.564q-.038 1.085-.225 1.207a3.775 3.775 0 01-.825.372 2.587 2.587 0 01-.825.095l-.5-.018a1.4 1.4 0 01-.746-.187.772.772 0 01-.192-.652l.007-.226.025-.375.02-.279-.039-.431-.027-.775a.167.167 0 00-.028-.119l-.085-.024a21.41 21.41 0 00-2.215.03l-.2.014-.118-.015zm12.758 3.724a2.033 2.033 0 01-.533-.119 2.1 2.1 0 00-.427-.115 3.494 3.494 0 01-.84-.546q-.356-.281-.747-.611t-.85-.755a2.035 2.035 0 01-.645-.915 4.418 4.418 0 01-.096-1.272 10.634 10.634 0 01.28-1.86q.305-1.323.767-2.876.709-2.436 1.308-4.206a18.12 18.12 0 01.664-1.83l.033-.02a2.019 2.019 0 011.285-.482 2.857 2.857 0 011.31.503q.784.485.77.87l-.047.128a30.571 30.571 0 00-1.08 3.24q-.172.618-.416 1.432t-.558 1.823a21.792 21.792 0 00-.892 3.42.9.9 0 00.023.258.542.542 0 00.11.204.66.66 0 00.444.173q1.32.046 3.414-7.586l.32-1.181q.246-.884.489-1.984a4.1 4.1 0 01.388-1.256.971.971 0 01.475-.241 2.861 2.861 0 01.803-.072 2.718 2.718 0 011.543.607q.77.58.761.838l-.348 1.03-.666 2.127-.596 2.3q-.275 1.097-.564 2.136t-.603 2.016a7.345 7.345 0 01-2.292 3.456 7.03 7.03 0 01-1.573 1.046 3.134 3.134 0 01-1.415.319zm14.873-12.177q-1.502 4.85-2.901 9.8l-.136.52a2.755 2.755 0 01-.113.35l-.148.555q-.305 1.344-1.11 1.316l-.602-.28a8.262 8.262 0 00-1.185-.46l-.138-.048q-.437-.115-.425-.434l.989-3.705 1.983-7.53-.472-.06-.406-.057-.1.007-.15.006-.353-.056-.363-.055-.07-.003a.3.3 0 01-.18-.049l-.038-.162.04-.214.041-.268-.023-.27-.022-.28a4.2 4.2 0 01.132-.92q.115-.426.254-.491a12.408 12.408 0 013.424-.493l.539-.035 1.901-.009 2.116.042q.236.008.37.613a6.171 6.171 0 01.104 1.52.766.766 0 01-.499.724 11.614 11.614 0 01-2.46.426zm3.961 12.64a.031.031 0 01-.021.01 1.716 1.716 0 01-.203.068l-.549.023a3.446 3.446 0 01-1.673-.418 1.08 1.08 0 01-.611-.983l.006-.193a16.6 16.6 0 01.815-3.927q.728-2.382.945-3.364.026-.16.078-.398t.173-.676l.578-2.226a21.374 21.374 0 01.666-2.137l.084-.233-.03-.066-.018-.086.116-.265a3.2 3.2 0 00.16-.543l.38-.137a1.911 1.911 0 00.519-.057l.367-.073a2.817 2.817 0 011.307.446q.098.057.131.074a.532.532 0 00.08.03l.15.005a.351.351 0 01.228.083.5.5 0 01.137.241l-.246.884q-.355 1.568-.753 3.07l-.375 1.535a.5.5 0 00.125.09l.4.046a5.122 5.122 0 001.102-.052q.395-.078.465-.226l.037-.15.709-2.758q.252-1.066.358-1.488t.23-.852l.295-1.075a.576.576 0 01.429-.4 6.122 6.122 0 011.35-.043 1.037 1.037 0 01.857.374l.113.144.316.194q.316.161.31.333l-.003.086.017.14.016.13a.663.663 0 01-.095.244l-.126.232-1.064 3.993q-.234.992-.536 2.12-.05.199-.53 1.917l-.518 1.938q-.358 1.31-.566 2.055-.315 1.069-.623 2.158-.184.015-.301.033t-.32.064a2.638 2.638 0 01-.562.08 2.708 2.708 0 01-1.283-.345.868.868 0 01-.526-.776 16.182 16.182 0 01.763-3.982 7.022 7.022 0 00.2-.82.114.114 0 00-.071-.103.867.867 0 00-.32-.05q-1.46-.05-1.618.76l-.12.545-.56 1.881zm13.097.779a2.735 2.735 0 01-.97-.26l-.18-.082-.074-.023-.376-.013-.32-.043a1.042 1.042 0 01-.297-.097 3.26 3.26 0 01-1.625-1.658 6.487 6.487 0 01-.452-2.901 12.287 12.287 0 01.967-3.997 17.266 17.266 0 012.283-4.102l.292-.377q1.972-2.585 3.249-2.54l.225.018.344.023a4.191 4.191 0 011.181.331l.446.166a3.542 3.542 0 011.958 1.637 5.743 5.743 0 01.557 2.965 13.361 13.361 0 01-.396 2.759 13.651 13.651 0 01-.969 2.674 15.832 15.832 0 01-1.66 2.726 9.863 9.863 0 01-1.823 1.904 5.2 5.2 0 01-1.14.648 2.582 2.582 0 01-1.03.243zm-.829-4.576a2.67 2.67 0 00.13 1.058.53.53 0 00.476.393q.376.013.857-.53a5.577 5.577 0 00.513-.675q.266-.405.599-.994a16.266 16.266 0 001.304-2.976 11.04 11.04 0 00.316-1.344 10.328 10.328 0 00.15-1.395 4.185 4.185 0 00-.121-1.332q-.15-.484-.44-.494-.13-.004-.561.534a13.584 13.584 0 00-.98 1.444 16.9 16.9 0 00-1.576 3.4 10.946 10.946 0 00-.666 2.912zm12.96-3.582a.146.146 0 00.04.109l.106.046a3.735 3.735 0 00.866-.47 11.619 11.619 0 001.5-1.124 5.168 5.168 0 001.091-1.236 2.477 2.477 0 00.423-1.173.477.477 0 00-.259-.449 1.758 1.758 0 00-.816-.179 4.627 4.627 0 00-1.13.061.723.723 0 00-.514.363l-.012.032q-.308.817-.647 1.923l-.254.786zm2.96 2.082a13.442 13.442 0 00.902 2.61 6.134 6.134 0 01.67 2.226l-.001.045q-.008.225-.678.911t-.959.676a1.4 1.4 0 01-.889-.552 18.329 18.329 0 01-1.55-2.22q-.357-.561-.81-1.437-.402-.809-.519-.834-.258-.01-.574 1.517t-.621 2.537l-.036.105q-.221.81-1.253.773a3.407 3.407 0 01-.645-.275 5.322 5.322 0 01-.937-.565.845.845 0 01-.226-.298.877.877 0 01-.072-.402q.014-.408.958-4.04.321-1.215.698-2.604t.745-2.704q.368-1.315.894-3.145.085-.297.163-.52a2.426 2.426 0 01.146-.35.677.677 0 01.282-.344l.39-.105.966-.245q.336-.088.763-.161t.838-.127a9.6 9.6 0 011.357-.071 6.9 6.9 0 011.613.287 3.876 3.876 0 011.354.612 1.4 1.4 0 01.29.29 1.344 1.344 0 01.188.36 16.759 16.759 0 01.589 1.768 4.437 4.437 0 01.191 1.13 3.825 3.825 0 01-.883 2.195 10.568 10.568 0 01-1.253 1.278q-.812.728-2.092 1.683zm3.259 5.767q.01-.279.62-2.687.232-.927.434-1.662.259-.936.492-1.767.184-.639.56-1.881l1.235-4.278.541-1.937a.73.73 0 01.385-.701 2.635 2.635 0 011.16-.148 2.979 2.979 0 011.415.45q.715.425.708.637a1 1 0 01-.15.307l-.208.393-.451 1.467-.293.99q-.475 1.596-1.158 4.518l-.253 1.077q-.326 1.343-.389 1.587-.136.533-.418 1.511-.37 1.388-.734 2.543a.741.741 0 01-.344.472 2.42 2.42 0 01-.998.094l-.322-.011a2.559 2.559 0 01-1.288-.374q-.553-.348-.544-.596zm12.634.495a29.1 29.1 0 01-1.01-4.33 22.358 22.358 0 01-.255-4.131l.008-.236a.325.325 0 00-.016-.15l-.042-.034a.13.13 0 00-.126.066.426.426 0 00-.045.198 29.066 29.066 0 01-.461 3.069q-.439 2.403-1.114 5.11a1.521 1.521 0 01-.657.95 2.166 2.166 0 01-1.29.304 1.741 1.741 0 01-.51-.147l-.532-.18a.424.424 0 01-.337-.495 8.944 8.944 0 01.208-1.019q.202-.858.61-2.37l.574-2.13q.356-1.266.662-2.34.147-.512.756-2.565l.269-.936a15.829 15.829 0 01.987-2.884 1.112 1.112 0 01.47-.344 1.408 1.408 0 01.323-.053 5.354 5.354 0 01.538-.002 2.416 2.416 0 01.763.285l.492.243.31.075a.3.3 0 01.27.122.634.634 0 00.219.208.382.382 0 01.143.365l-.015.107-.03.536.034 1.914.11 4.239.005.773a2.765 2.765 0 00.015.49q.026.168.08.18a.126.126 0 00.132-.095l.054-.32q.017-.473.118-1.227a14.416 14.416 0 01.265-1.437l.195-.972q.738-3.576 1.103-4.798l.184-.649q.116-.447.19-.488a4.011 4.011 0 01.598-.215 2.636 2.636 0 01.692-.105l.215.019.2.018.278.01a2.308 2.308 0 01.765.246q.518.238.514.346l-.345 1.29-1.008 3.618-.878 3.272-.399 1.566q-.298 1.15-.552 1.99l-.343 1.214q-.581 2.146-.794 2.139a1.684 1.684 0 00-.41.04l-.301.043-.47-.091zm16.292-5.75a6.269 6.269 0 01-.858 2.426 12.26 12.26 0 01-2.011 2.794 6.223 6.223 0 01-1.813 1.297 4.138 4.138 0 01-1.902.444 3.684 3.684 0 01-2.729-1.262 4.174 4.174 0 01-1.01-3.05 9.015 9.015 0 01.144-1.28 12.9 12.9 0 01.35-1.434 19.922 19.922 0 011.27-3.126q.416-.813.867-1.593t.904-1.42a10.563 10.563 0 011.825-2.075 3.328 3.328 0 01.957-.612 3.139 3.139 0 011.22-.15 3.661 3.661 0 011.865.774l.263.181.104.068a2.847 2.847 0 011.252 2.645q-.015.42-.06.789a7.783 7.783 0 01-.146.806 6.793 6.793 0 01-.4 1.33q-.11.254-.654.396a4.4 4.4 0 01-1.256.118 1.014 1.014 0 01-.675-.217.789.789 0 01-.198-.63q.018-.5.053-.899.123-1.397.126-1.468l.018-.2a.319.319 0 00-.078-.239.274.274 0 00-.212-.093q-.183-.007-.783.73a12.369 12.369 0 00-1.197 1.812 21.665 21.665 0 00-1.56 3.278 8.659 8.659 0 00-.569 2.591 2.03 2.03 0 00.16.974.627.627 0 00.546.352 1.79 1.79 0 001.269-.767 2.348 2.348 0 00.715-1.26.291.291 0 00-.016-.14.253.253 0 00-.106-.036l-.172.015-.162.015a.866.866 0 01-.645-.28 1.146 1.146 0 01-.2-.781 2.552 2.552 0 01.216-1.105.619.619 0 01.612-.317q.7.024 2.067-.073t2.076-.073l.172.006a.32.32 0 01.293.204 1.165 1.165 0 01.068.538zM426.37 230.245l.131.005a1.473 1.473 0 00.28-.012l.183-.014a1.936 1.936 0 011.013.551q.636.539.643.657l-.035.085-.036.128.013.227a3.736 3.736 0 01-.664 1.366 10.919 10.919 0 01-1.611 1.938 5.228 5.228 0 01-1.632 1.089 4.229 4.229 0 01-1.807.351 4.011 4.011 0 01-3.086-1.361 4.957 4.957 0 01-1.012-3.492 9.286 9.286 0 01.547-2.728 20.165 20.165 0 011.645-3.398 21.9 21.9 0 011.651-2.506 13.226 13.226 0 011.781-1.885l.103-.097a2.986 2.986 0 012.147-.516 3.388 3.388 0 012.373.813 2.953 2.953 0 01.694 2.271q-.015.419-.073.863a8.8 8.8 0 01-.172.913 13.5 13.5 0 01-.62 2.042.637.637 0 01-.471.408 4.765 4.765 0 01-1.19.058 1.169 1.169 0 01-.943-.398 2.08 2.08 0 01-.236-1.244 5.565 5.565 0 01.156-1.08l.146-.78a.426.426 0 00-.035-.232.258.258 0 00-.17-.087q-.225-.008-.85.954t-1.763 3.075a12.27 12.27 0 00-.947 2.202q-.17.563-.262 1.022a5.676 5.676 0 00-.107.91 1.31 1.31 0 00.15.779.672.672 0 00.567.256 2.439 2.439 0 001.649-.75 10.325 10.325 0 001.85-2.383zm2.617 2.027a12.2 12.2 0 011.122-.617 1.485 1.485 0 01.598-.172q.44.016.527.288l.058.174a2.9 2.9 0 00.695 1.19 1.489 1.489 0 001.01.45 1.067 1.067 0 00.775-.327 1.234 1.234 0 00.363-.847q.017-.472-1.13-1.802l-.59-.677a4.892 4.892 0 01-.832-1.384 4.581 4.581 0 01-.201-.728 3.36 3.36 0 01-.05-.722 5.686 5.686 0 01.862-2.812 8.515 8.515 0 012.353-2.428 6.122 6.122 0 011.172-.641 2.553 2.553 0 01.933-.253 2.667 2.667 0 011.271.539l.463.295.348.196a2.513 2.513 0 011.287 2.527 5.148 5.148 0 01-.519 2.255q-.471.884-1.13.861a3.532 3.532 0 01-.558-.062q-.267-.053-.427-.09-.297-.075-.532-.143a1.89 1.89 0 01-.297-.101.53.53 0 01-.271-.225 1.254 1.254 0 01-.057-.518l.01-.3q.012-.344.034-.493t.086-.47l.123-.662a.149.149 0 00-.054-.131.455.455 0 00-.186-.07q-.258-.01-.82.68a3.094 3.094 0 00-.4.695 2.122 2.122 0 00-.154.725q-.03.87 1.33 2.248l.446.456a5.541 5.541 0 011.062 1.438 2.874 2.874 0 01.291 1.343 5 5 0 01-1.642 3.485 4.641 4.641 0 01-3.483 1.458 4.093 4.093 0 01-2.822-1.232 3.562 3.562 0 01-1.134-2.753l.049-.499zm9.759.34a12.2 12.2 0 011.122-.616 1.485 1.485 0 01.598-.172q.44.015.527.288l.058.174a2.9 2.9 0 00.695 1.19 1.489 1.489 0 001.01.45 1.067 1.067 0 00.776-.327 1.234 1.234 0 00.362-.847q.017-.473-1.13-1.802l-.594-.678a4.892 4.892 0 01-.833-1.383 4.582 4.582 0 01-.201-.728 3.36 3.36 0 01-.05-.722 5.686 5.686 0 01.862-2.813 8.515 8.515 0 012.353-2.427 6.122 6.122 0 011.172-.642 2.553 2.553 0 01.933-.252 2.667 2.667 0 011.271.539l.463.295.348.195a2.513 2.513 0 011.287 2.528 5.148 5.148 0 01-.519 2.255q-.47.884-1.13.86a3.532 3.532 0 01-.558-.062q-.267-.052-.427-.09-.297-.074-.532-.142a1.89 1.89 0 01-.297-.102.53.53 0 01-.271-.224 1.254 1.254 0 01-.057-.518l.01-.3q.012-.344.034-.493t.086-.47l.123-.663a.149.149 0 00-.054-.13.455.455 0 00-.186-.071q-.258-.01-.82.68a3.094 3.094 0 00-.4.696 2.122 2.122 0 00-.154.725q-.03.87 1.33 2.248l.446.456a5.541 5.541 0 011.062 1.438 2.874 2.874 0 01.292 1.343 5 5 0 01-1.643 3.484 4.641 4.641 0 01-3.474 1.464 4.093 4.093 0 01-2.822-1.232 3.562 3.562 0 01-1.135-2.754l.05-.498zm23.064-1.13l.128.005a1.473 1.473 0 00.28-.011l.184-.015a1.936 1.936 0 011.012.552q.637.539.643.657l-.035.085-.036.127.013.227a3.736 3.736 0 01-.666 1.369 10.919 10.919 0 01-1.61 1.938 5.228 5.228 0 01-1.63 1.087 4.229 4.229 0 01-1.807.352 4.011 4.011 0 01-3.085-1.363 4.957 4.957 0 01-1.012-3.491 9.286 9.286 0 01.546-2.728 20.165 20.165 0 011.645-3.399 21.9 21.9 0 011.651-2.506 13.226 13.226 0 011.781-1.885l.104-.096a2.986 2.986 0 012.146-.516 3.388 3.388 0 012.373.813 2.953 2.953 0 01.694 2.27q-.014.42-.073.863a8.8 8.8 0 01-.172.913 13.5 13.5 0 01-.62 2.043.637.637 0 01-.47.407 4.765 4.765 0 01-1.19.059 1.169 1.169 0 01-.943-.398 2.08 2.08 0 01-.236-1.244 5.565 5.565 0 01.156-1.08l.145-.78a.426.426 0 00-.035-.232.258.258 0 00-.169-.087q-.226-.008-.85.954t-1.76 3.074a12.27 12.27 0 00-.947 2.203q-.17.563-.261 1.022a5.676 5.676 0 00-.107.91 1.31 1.31 0 00.15.779.672.672 0 00.566.256 2.439 2.439 0 001.65-.75 10.325 10.325 0 001.846-2.383zm7.466 6.818a2.735 2.735 0 01-.97-.26l-.18-.081-.074-.024-.374-.013-.32-.043a1.042 1.042 0 01-.297-.096 3.26 3.26 0 01-1.624-1.658 6.488 6.488 0 01-.452-2.901 12.287 12.287 0 01.967-3.997 17.266 17.266 0 012.282-4.102l.293-.377q1.971-2.586 3.248-2.541l.226.019.343.023a4.191 4.191 0 011.181.331l.446.166a3.542 3.542 0 011.958 1.637 5.743 5.743 0 01.558 2.964 13.361 13.361 0 01-.397 2.76 13.65 13.65 0 01-.969 2.674 15.832 15.832 0 01-1.659 2.726 9.863 9.863 0 01-1.823 1.903 5.2 5.2 0 01-1.14.649 2.583 2.583 0 01-1.03.243zm-.829-4.575a2.67 2.67 0 00.13 1.058.53.53 0 00.476.393q.376.013.857-.53a5.577 5.577 0 00.513-.675q.266-.405.599-.995a16.266 16.266 0 001.305-2.975 11.039 11.039 0 00.316-1.344 10.328 10.328 0 00.149-1.396 4.185 4.185 0 00-.121-1.332q-.15-.483-.44-.493-.129-.005-.561.533a13.583 13.583 0 00-.98 1.444 16.9 16.9 0 00-1.576 3.401 10.946 10.946 0 00-.666 2.91zm11.647 1.084a.243.243 0 00.048.163.154.154 0 00.116.068q.1.003.718-.706a11.381 11.381 0 001.173-1.615 13.379 13.379 0 001.248-2.515 7.515 7.515 0 00.399-2.178 2.261 2.261 0 00-.22-1.27 1.037 1.037 0 00-.894-.403q-.086-.003-.182.284l-.254.807-.364 1.188-.615 2.225q-.385 1.48-.782 2.704zm-.633 3.78a1.548 1.548 0 01-.363-.067q-.213-.061-.605-.214-.265-.11-.568-.208t-.536-.175a5.817 5.817 0 01-1.115-.393.393.393 0 01-.225-.308q.005-.14 1.223-4.579l2.145-7.858a4.416 4.416 0 01.763-1.795 1.628 1.628 0 011.227-.339l.923.032a5.313 5.313 0 013.762 1.533 4.857 4.857 0 011.342 3.749 10.025 10.025 0 01-1.157 4.48 15.269 15.269 0 01-3.502 4.095q-.499.434-.99.8t-1.022.671a3.577 3.577 0 01-1.306.578zm9.424.393a3.531 3.531 0 01-1.185-.982 1.912 1.912 0 01-.32-1.178 26.44 26.44 0 01.711-2.958q.698-2.577 1.76-5.942l.542-1.77q.862-2.818 1.109-2.81l.192.029.182.027.119-.017.183-.014.578.063.654.066q.106.003.333 0t.56-.023l1.064-.017q.376.013.541.035t.685.105a6.584 6.584 0 011.029.25.774.774 0 01.559.478 2.706 2.706 0 01.12 1.041q-.008.215-.023.333a4.183 4.183 0 01-.09.416 1.544 1.544 0 01-.123.469 6.172 6.172 0 01-1.76.229l-1.347.077q-.647.036-1.25.101l-.455 1.328q-.17.563-.312 1.225l.483.006.548.008q.4.014.73.036t.744.08q.412.058.473.146a2.355 2.355 0 01.453 1.36 3.054 3.054 0 01-.167.767l-.18.542a5.7 5.7 0 01-1.74.305q-1.586.16-2.418.292l-.304 1.114a5.851 5.851 0 00-.203.874l-.002.075.038.12 1.915-.034.795-.004.225.04a.137.137 0 01.084.057.031.031 0 00.01.021l-.006.183.36.475a1.682 1.682 0 01.337 1.112 2.061 2.061 0 01-.147.839q-.126.227-.577.21h-.043a5.8 5.8 0 00-1.28.175 10.064 10.064 0 01-1.281.218l-.314.032a14.222 14.222 0 00-2.594.393zm16.791.264a.031.031 0 01-.021.01 1.716 1.716 0 01-.203.069l-.549.023a3.446 3.446 0 01-1.673-.418 1.08 1.08 0 01-.611-.983l.007-.193a16.6 16.6 0 01.814-3.927q.729-2.382.945-3.364.027-.16.078-.398t.174-.676l.578-2.226a21.374 21.374 0 01.666-2.137l.083-.233-.03-.066-.018-.086.116-.265a3.2 3.2 0 00.16-.543l.38-.137a1.911 1.911 0 00.519-.057l.368-.073a2.817 2.817 0 011.306.446q.098.057.131.074a.531.531 0 00.08.03l.15.005a.351.351 0 01.228.083.5.5 0 01.137.241l-.246.884q-.355 1.568-.752 3.07l-.376 1.535a.5.5 0 00.126.09l.398.046a5.122 5.122 0 001.103-.052q.395-.078.465-.226l.037-.15.709-2.758q.252-1.066.358-1.488t.23-.852l.296-1.075a.576.576 0 01.428-.4 6.123 6.123 0 011.35-.043 1.037 1.037 0 01.858.374l.113.144.315.194q.317.161.31.333l-.002.086.016.14.016.13a.663.663 0 01-.094.244l-.126.232-1.064 3.993q-.235.992-.537 2.12-.05.199-.529 1.917l-.519 1.938q-.358 1.31-.566 2.055-.317 1.09-.624 2.17-.184.015-.301.033t-.32.064a2.638 2.638 0 01-.562.08 2.708 2.708 0 01-1.283-.345.868.868 0 01-.526-.776 16.181 16.181 0 01.762-3.982 7.02 7.02 0 00.201-.82.114.114 0 00-.071-.103.867.867 0 00-.32-.05q-1.46-.05-1.618.76l-.12.545-.56 1.881zm13.084-5.928q-.002.075.096.117a1.176 1.176 0 00.359.05l.332.012a2.112 2.112 0 00.647-.037q.142-.054.227-.352l.109-.641.112-.749q.125-.696.25-1.426t.286-1.425l.297-1.44-.019-.055-.074-.014a6.4 6.4 0 00-.954 2.063l-.118.318q-.499 1.359-1.009 2.415zm-1.314 3.256q-.183-.006-.595 1.011-.188.467-.38.906t-.356.788l-.294.699a.619.619 0 01-.63.478l-.353-.023-.499-.029a4.218 4.218 0 01-1.077-.683l-.097-.067-.115-.09a.415.415 0 01-.215-.34 21.364 21.364 0 011.682-4.156q.825-1.755 1.904-3.889t2.31-4.422q.114-.196.3-.57l.357-.718q.763-1.532 1.612-1.502a4.044 4.044 0 01.674.087q.182.039.357.088a3.019 3.019 0 01.345.119q.478.167 1.106.339a5.611 5.611 0 01.694.185 1.542 1.542 0 01.576.44.992.992 0 01.172.618l-.456 3.5q-.075.62-.307 2.19t-.338 2.45q-.153 1.316-.191 2.411l-.13 1.565q-.038 1.084-.225 1.206a3.775 3.775 0 01-.825.372 2.587 2.587 0 01-.825.095l-.5-.017a1.4 1.4 0 01-.746-.187.772.772 0 01-.192-.653l.007-.225.025-.376.02-.278-.039-.432-.027-.774a.167.167 0 00-.028-.12l-.085-.023a21.409 21.409 0 00-2.227.041l-.2.014-.118-.015zm7.621-.948a12.2 12.2 0 011.123-.616 1.485 1.485 0 01.597-.173q.44.016.527.288l.058.174a2.9 2.9 0 00.695 1.191 1.489 1.489 0 001.011.45 1.067 1.067 0 00.775-.328 1.234 1.234 0 00.363-.846q.016-.473-1.13-1.803l-.589-.676a4.892 4.892 0 01-.833-1.384 4.582 4.582 0 01-.2-.727 3.36 3.36 0 01-.05-.722 5.686 5.686 0 01.861-2.813 8.515 8.515 0 012.353-2.427 6.122 6.122 0 011.172-.642 2.553 2.553 0 01.934-.253 2.666 2.666 0 011.27.54l.464.295.347.195a2.513 2.513 0 011.288 2.527 5.148 5.148 0 01-.52 2.255q-.47.885-1.13.862a3.532 3.532 0 01-.557-.063q-.268-.052-.427-.09-.298-.074-.533-.143a1.89 1.89 0 01-.296-.101.53.53 0 01-.272-.225 1.254 1.254 0 01-.057-.518l.01-.3q.013-.343.034-.493t.086-.47l.124-.662a.149.149 0 00-.055-.131.455.455 0 00-.185-.07q-.258-.01-.82.68a3.094 3.094 0 00-.4.696 2.122 2.122 0 00-.155.725q-.03.87 1.33 2.247l.446.456a5.541 5.541 0 011.063 1.438 2.874 2.874 0 01.29 1.343 5 5 0 01-1.642 3.485 4.641 4.641 0 01-3.474 1.464 4.093 4.093 0 01-2.822-1.233 3.562 3.562 0 01-1.134-2.753l.05-.498zm21.567 4.483a29.1 29.1 0 01-1.01-4.33 22.357 22.357 0 01-.255-4.131l.008-.236a.325.325 0 00-.016-.15l-.042-.034a.13.13 0 00-.126.066.426.426 0 00-.045.198 29.066 29.066 0 01-.461 3.069q-.439 2.403-1.114 5.11a1.521 1.521 0 01-.657.95 2.166 2.166 0 01-1.29.304 1.741 1.741 0 01-.51-.147l-.532-.18a.424.424 0 01-.337-.495 8.942 8.942 0 01.208-1.019q.202-.859.61-2.37l.574-2.13q.356-1.266.662-2.34.147-.512.756-2.565l.269-.936a15.829 15.829 0 01.987-2.884 1.112 1.112 0 01.47-.344 1.408 1.408 0 01.323-.053 5.354 5.354 0 01.538-.002 2.416 2.416 0 01.763.285l.492.243.31.075a.3.3 0 01.27.122.634.634 0 00.218.208.382.382 0 01.144.365l-.015.107-.03.536.034 1.914.11 4.239.005.773a2.765 2.765 0 00.015.49q.026.168.08.18a.126.126 0 00.132-.095l.054-.32q.017-.473.118-1.227a14.416 14.416 0 01.265-1.437l.195-.972q.737-3.576 1.103-4.798l.184-.649q.116-.447.19-.488a4.011 4.011 0 01.598-.215 2.636 2.636 0 01.692-.105l.215.019.2.018.284.01a2.308 2.308 0 01.765.246q.518.239.514.347l-.345 1.288-1.008 3.62-.878 3.27q-.2.79-.399 1.567-.298 1.15-.552 1.99l-.343 1.214q-.592 2.142-.803 2.135a1.685 1.685 0 00-.41.04l-.301.043-.47-.092zm7.441 1.153a3.531 3.531 0 01-1.185-.982 1.911 1.911 0 01-.32-1.178 26.442 26.442 0 01.712-2.958q.697-2.577 1.76-5.942l.545-1.776q.862-2.82 1.11-2.81l.191.027.182.028.119-.017.184-.015.578.063.653.066q.107.004.333 0t.56-.023l1.064-.016q.376.013.542.034t.684.105a6.584 6.584 0 011.03.251.774.774 0 01.558.477 2.706 2.706 0 01.12 1.042q-.008.215-.023.332a4.18 4.18 0 01-.09.417 1.544 1.544 0 01-.123.469 6.172 6.172 0 01-1.76.228l-1.347.077q-.646.037-1.25.102l-.454 1.328q-.17.563-.312 1.225l.483.005.548.009q.4.014.729.036t.745.08q.412.057.473.146a2.355 2.355 0 01.453 1.36 3.055 3.055 0 01-.167.767l-.18.542a5.7 5.7 0 01-1.741.304q-1.586.16-2.418.292l-.308 1.118a5.852 5.852 0 00-.203.875l-.002.075.039.119 1.914-.033.796-.004.224.04a.137.137 0 01.084.056.031.031 0 00.01.022l-.006.183.36.474a1.682 1.682 0 01.337 1.113 2.06 2.06 0 01-.147.838q-.126.227-.577.211l-.043-.001a5.8 5.8 0 00-1.28.175 10.063 10.063 0 01-1.281.219l-.313.032a14.222 14.222 0 00-2.598.392zm9.613-1.03l.02-.235.023-.353.015-.763.015-.73.028-.816q.065-.61.13-1.396t.089-1.443l.506-5.285.088-.954a2.754 2.754 0 01.43-1.56 1.2 1.2 0 011.06-.505 5.573 5.573 0 011.1.21l.575.15a.343.343 0 01.29.279 8.031 8.031 0 01.02 1.451 36.693 36.693 0 01-1.049 7.251q-.116.458-.177.767a3.067 3.067 0 00-.068.417.225.225 0 00.028.12l.062.034a22.277 22.277 0 001.305-2.965q.6-1.48 1.23-2.918t1.35-2.946l.662-1.417q.544-1.25.796-1.241l.128.026.1.014.312-.01.216-.025a2.372 2.372 0 01.497.082l.352.066.15.005a1.4 1.4 0 01.7.417q.464.409.458.57a24.32 24.32 0 01-1.255 2.406q-1.283 2.357-2.28 4.36l-.216.423-3.022 5.914-.532 1.088q-.474.962-.734.953a2.113 2.113 0 01-.588-.095 2.185 2.185 0 01-.55-.289l-.083-.057a1.907 1.907 0 00-.87-.32.482.482 0 01-.2-.04 4.551 4.551 0 01-.73-.315 1.3 1.3 0 01-.389-.325zm10.656 1.737a3.531 3.531 0 01-1.185-.982 1.911 1.911 0 01-.32-1.177 26.442 26.442 0 01.711-2.958q.698-2.578 1.76-5.943l.546-1.776q.862-2.818 1.109-2.81l.192.028.182.027.119-.016.183-.015.578.063.654.066q.106.004.333 0t.56-.023l1.064-.017q.376.013.541.035t.685.105a6.584 6.584 0 011.029.251.774.774 0 01.559.477 2.706 2.706 0 01.12 1.042q-.008.215-.023.332a4.18 4.18 0 01-.09.416 1.544 1.544 0 01-.123.47 6.172 6.172 0 01-1.76.228l-1.347.077q-.647.037-1.25.102l-.455 1.328q-.17.563-.312 1.224l.483.006.548.008q.4.014.73.037t.744.08q.412.057.473.145a2.355 2.355 0 01.453 1.36 3.055 3.055 0 01-.167.768l-.18.542a5.7 5.7 0 01-1.74.304q-1.586.16-2.418.292l-.308 1.118a5.852 5.852 0 00-.203.874l-.002.075.038.12 1.915-.033.795-.005.225.04a.137.137 0 01.084.057.031.031 0 00.01.022l-.006.182.36.475a1.682 1.682 0 01.337 1.113 2.06 2.06 0 01-.147.838q-.126.227-.577.211l-.043-.001a5.8 5.8 0 00-1.28.175 10.063 10.063 0 01-1.281.218l-.314.033a14.222 14.222 0 00-2.597.392zm13.378-8.115a.146.146 0 00.04.109l.105.047a3.735 3.735 0 00.866-.47 11.619 11.619 0 001.501-1.125 5.168 5.168 0 001.091-1.236 2.477 2.477 0 00.422-1.173.477.477 0 00-.258-.449 1.758 1.758 0 00-.817-.178 4.627 4.627 0 00-1.13.06.723.723 0 00-.513.363l-.012.032q-.308.817-.648 1.923l-.254.786zm2.959 2.082a13.442 13.442 0 00.903 2.611 6.134 6.134 0 01.67 2.225l-.002.045q-.008.226-.677.912t-.96.676a1.4 1.4 0 01-.888-.553 18.328 18.328 0 01-1.55-2.22q-.358-.561-.81-1.436-.402-.81-.52-.835-.257-.009-.574 1.517t-.62 2.537l-.036.106q-.222.808-1.253.772a3.407 3.407 0 01-.646-.274 5.322 5.322 0 01-.937-.565.845.845 0 01-.226-.298.878.878 0 01-.071-.403q.014-.408.957-4.04.322-1.215.698-2.604t.745-2.704q.368-1.315.894-3.145.086-.297.164-.52a2.426 2.426 0 01.146-.35.677.677 0 01.281-.344l.391-.104.965-.246q.337-.088.763-.161t.838-.127a9.6 9.6 0 011.358-.07 6.9 6.9 0 011.613.287 3.876 3.876 0 011.354.611 1.4 1.4 0 01.29.29 1.344 1.344 0 01.188.36 16.759 16.759 0 01.588 1.768 4.437 4.437 0 01.192 1.13 3.825 3.825 0 01-.883 2.195 10.568 10.568 0 01-1.254 1.278q-.811.728-2.092 1.683zm-169.229 23.712a.187.187 0 00.112.165 1.309 1.309 0 00.288.064 4.037 4.037 0 001.96-.581q1.146-.607 1.167-1.207.009-.257-.648-.548a3.97 3.97 0 00-.675-.217 4.016 4.016 0 00-.775-.102l-.311-.011a.519.519 0 00-.232.03.228.228 0 00-.105.141l-.549 1.55zm1.863-5.638a.135.135 0 00.05.12.361.361 0 00.187.045 3.621 3.621 0 002.087-.953q1.285-.982 1.311-1.745a.537.537 0 00-.336-.506 2.373 2.373 0 00-1.003-.207q-.4-.014-.538-.003a2.539 2.539 0 00-.346.058.623.623 0 00-.448.21l-.112.351-.183.628-.49 1.434zm3.187 1.998a3.46 3.46 0 011.199 1.096 2.48 2.48 0 01.35 1.431 3.977 3.977 0 01-.141.968 3.028 3.028 0 01-.394.83 5.2 5.2 0 01-1.652 1.443 10.519 10.519 0 01-1.476.722 14.693 14.693 0 01-1.74.594l-1.514.348a4.425 4.425 0 01-.874.098 3.082 3.082 0 01-1.564-.597q-.855-.572-.842-.938a24.208 24.208 0 01.732-3.446q.323-1.247.52-1.983.345-1.267.64-2.28.121-.414.778-2.584l.62-2.041.353-1.17q.14-.33 1.433-.542a16 16 0 013.107-.15 5.557 5.557 0 011.571.255 2.758 2.758 0 011.084.645 5.915 5.915 0 011.098 1.49 3.1 3.1 0 01.336 1.473 3.759 3.759 0 01-.95 2.268 9.022 9.022 0 01-2.674 2.07zm4.409 7.97a3.531 3.531 0 01-1.186-.983 1.911 1.911 0 01-.319-1.178 26.441 26.441 0 01.71-2.958q.698-2.577 1.761-5.942l.546-1.776q.861-2.819 1.108-2.81l.192.028.183.027.118-.017.184-.014.578.063.653.066q.107.003.333 0t.56-.023l1.065-.017q.375.013.54.035t.686.105a6.585 6.585 0 011.028.25.774.774 0 01.56.478 2.706 2.706 0 01.119 1.042q-.008.214-.023.332a4.182 4.182 0 01-.09.416 1.544 1.544 0 01-.123.469 6.172 6.172 0 01-1.76.229l-1.346.077q-.647.036-1.25.101l-.455 1.328q-.17.564-.312 1.225l.483.006.548.008q.4.014.73.036t.744.08q.412.058.473.146a2.355 2.355 0 01.453 1.36 3.055 3.055 0 01-.167.767l-.177.543a5.7 5.7 0 01-1.74.304q-1.586.16-2.418.292l-.305 1.118a5.851 5.851 0 00-.202.874l-.003.075.039.12 1.914-.034.796-.004.225.04a.137.137 0 01.084.057.031.031 0 00.01.021l-.006.183.36.475a1.682 1.682 0 01.337 1.113 2.06 2.06 0 01-.148.838q-.126.227-.576.211l-.046-.002a5.8 5.8 0 00-1.28.176 10.064 10.064 0 01-1.282.218l-.313.032a14.222 14.222 0 00-2.593.393zm9.823.342a3.531 3.531 0 01-1.186-.982 1.911 1.911 0 01-.319-1.178 26.441 26.441 0 01.71-2.958q.698-2.577 1.761-5.942l.546-1.776q.861-2.819 1.108-2.81l.192.028.183.027.118-.017.184-.014.578.063.653.066q.107.003.333 0t.56-.023l1.065-.017q.375.013.54.035t.686.105a6.585 6.585 0 011.028.25.774.774 0 01.56.478 2.706 2.706 0 01.119 1.042q-.008.214-.023.332a4.182 4.182 0 01-.09.416 1.544 1.544 0 01-.123.469 6.172 6.172 0 01-1.76.229l-1.346.077q-.647.036-1.25.101l-.455 1.328q-.17.564-.312 1.225l.483.006.548.008q.4.014.73.037t.744.08q.412.057.473.145a2.355 2.355 0 01.453 1.36 3.055 3.055 0 01-.167.767l-.18.542a5.7 5.7 0 01-1.738.309q-1.585.16-2.418.292l-.306 1.114a5.851 5.851 0 00-.202.874l-.003.075.039.12 1.914-.034.79-.001.226.04a.137.137 0 01.084.057.031.031 0 00.01.021l-.007.183.36.475a1.682 1.682 0 01.338 1.112 2.06 2.06 0 01-.148.839q-.126.227-.577.21h-.043a5.8 5.8 0 00-1.28.175 10.064 10.064 0 01-1.28.218l-.314.032a14.222 14.222 0 00-2.59.39zm14.341-.392a29.1 29.1 0 01-1.01-4.33 22.357 22.357 0 01-.255-4.13l.008-.237a.325.325 0 00-.016-.15l-.042-.034a.13.13 0 00-.126.066.426.426 0 00-.045.198 29.066 29.066 0 01-.461 3.069q-.439 2.403-1.115 5.11a1.521 1.521 0 01-.656.95 2.166 2.166 0 01-1.29.304 1.741 1.741 0 01-.51-.147l-.532-.18a.424.424 0 01-.337-.495 8.943 8.943 0 01.208-1.019q.202-.858.61-2.37l.574-2.13q.356-1.266.662-2.34.147-.512.756-2.565l.269-.936a15.829 15.829 0 01.987-2.884 1.112 1.112 0 01.47-.344 1.408 1.408 0 01.33-.053 5.355 5.355 0 01.537-.002 2.416 2.416 0 01.763.285l.492.243.31.075a.3.3 0 01.27.123.634.634 0 00.218.207.382.382 0 01.144.366l-.015.106-.03.536.033 1.915.11 4.238.006.774a2.765 2.765 0 00.015.49q.026.168.08.18a.126.126 0 00.132-.096l.054-.32q.016-.473.118-1.227a14.416 14.416 0 01.265-1.436l.195-.972q.737-3.577 1.103-4.799l.184-.649q.116-.447.19-.487a4.011 4.011 0 01.598-.216 2.636 2.636 0 01.692-.105l.215.019.2.018.278.01a2.308 2.308 0 01.765.247q.518.238.514.346l-.345 1.288-1.008 3.62-.878 3.27q-.2.79-.399 1.567-.298 1.15-.552 1.99l-.343 1.215q-.584 2.141-.799 2.134a1.685 1.685 0 00-.41.04l-.301.043-.47-.091zm18.957-11.269q-1.502 4.85-2.9 9.799-.063.245-.137.521a2.756 2.756 0 01-.112.35l-.149.555q-.305 1.344-1.11 1.316l-.602-.28a8.262 8.262 0 00-1.185-.46l-.138-.048q-.436-.115-.425-.434l.989-3.706 1.98-7.53-.471-.06-.407-.057-.1.008-.15.005-.353-.055-.363-.056-.064-.002a.3.3 0 01-.181-.05l-.038-.162.04-.213.041-.268-.014-.269-.023-.28a4.2 4.2 0 01.133-.92q.114-.426.253-.491a12.408 12.408 0 013.424-.493l.539-.035 1.901-.009 2.116.042q.236.008.37.613a6.171 6.171 0 01.104 1.52.766.766 0 01-.499.724 11.614 11.614 0 01-2.47.425zm3.961 12.639a.031.031 0 01-.021.01 1.716 1.716 0 01-.203.068l-.549.024a3.446 3.446 0 01-1.673-.419 1.08 1.08 0 01-.611-.982l.006-.193a16.6 16.6 0 01.815-3.927q.729-2.382.945-3.364.027-.16.078-.398t.174-.676l.578-2.226a21.373 21.373 0 01.666-2.137l.083-.234-.03-.065-.018-.086.116-.266a3.2 3.2 0 00.16-.542l.38-.137a1.911 1.911 0 00.519-.057l.368-.073a2.817 2.817 0 011.306.446q.098.057.131.074a.532.532 0 00.08.03l.15.005a.351.351 0 01.228.083.5.5 0 01.137.241l-.246.884q-.355 1.568-.752 3.07l-.374 1.528a.5.5 0 00.126.09l.399.046a5.122 5.122 0 001.102-.053q.395-.077.465-.225l.037-.15.71-2.758q.251-1.066.357-1.489t.23-.851l.296-1.075a.576.576 0 01.428-.4 6.122 6.122 0 011.35-.044 1.037 1.037 0 01.858.375l.113.144.315.194q.317.16.31.333l-.002.086.016.14.016.13a.663.663 0 01-.094.244l-.126.232-1.064 3.993q-.235.992-.537 2.12-.05.199-.529 1.917l-.519 1.938q-.358 1.31-.566 2.055-.317 1.09-.624 2.17-.184.015-.301.033t-.32.064a2.638 2.638 0 01-.562.08 2.708 2.708 0 01-1.283-.345.868.868 0 01-.526-.776 16.181 16.181 0 01.763-3.983 7.021 7.021 0 00.2-.82.114.114 0 00-.071-.103.867.867 0 00-.32-.049q-1.46-.05-1.618.76l-.12.544-.56 1.882zm8.45-.328q.01-.28.62-2.687.233-.928.434-1.662l.492-1.767q.184-.639.56-1.882l1.235-4.277.54-1.938a.73.73 0 01.385-.701 2.635 2.635 0 011.16-.148 2.979 2.979 0 011.415.45q.716.425.708.637a1 1 0 01-.15.307l-.207.393-.452 1.467-.293.99q-.475 1.596-1.158 4.517l-.253 1.077q-.326 1.344-.388 1.588-.137.532-.418 1.511-.371 1.388-.735 2.543a.741.741 0 01-.344.471 2.42 2.42 0 01-.998.094l-.313-.01a2.559 2.559 0 01-1.288-.374q-.557-.351-.548-.6zm6.15-3.462a12.2 12.2 0 011.123-.616 1.485 1.485 0 01.597-.172q.44.015.527.287l.058.175a2.9 2.9 0 00.695 1.19 1.489 1.489 0 001.011.45 1.067 1.067 0 00.775-.327 1.234 1.234 0 00.363-.847q.016-.473-1.13-1.803l-.589-.675a4.892 4.892 0 01-.833-1.384 4.582 4.582 0 01-.2-.728 3.36 3.36 0 01-.05-.722 5.686 5.686 0 01.861-2.813 8.515 8.515 0 012.353-2.427 6.122 6.122 0 011.172-.641 2.553 2.553 0 01.934-.253 2.666 2.666 0 011.27.539l.464.295.347.195a2.513 2.513 0 011.287 2.527 5.148 5.148 0 01-.52 2.255q-.47.884-1.13.861a3.532 3.532 0 01-.557-.063q-.268-.052-.427-.09-.298-.074-.533-.142a1.89 1.89 0 01-.296-.102.53.53 0 01-.272-.224 1.254 1.254 0 01-.057-.518l.01-.3q.013-.344.034-.493t.086-.47l.124-.663a.149.149 0 00-.055-.13.455.455 0 00-.185-.071q-.258-.01-.82.68a3.094 3.094 0 00-.4.696 2.122 2.122 0 00-.155.725q-.03.87 1.33 2.248l.446.456a5.541 5.541 0 011.063 1.438 2.874 2.874 0 01.29 1.343 5 5 0 01-1.642 3.484 4.641 4.641 0 01-3.474 1.464 4.093 4.093 0 01-2.822-1.232 3.562 3.562 0 01-1.138-2.76l.05-.5zm17.049 5.217a3.531 3.531 0 01-1.186-.982 1.912 1.912 0 01-.319-1.177 26.44 26.44 0 01.72-2.957q.697-2.577 1.76-5.942l.546-1.776q.861-2.819 1.108-2.81l.192.027.183.028.118-.017.184-.015.578.064.653.065q.107.004.333.001t.56-.023l1.065-.017q.375.013.54.035t.686.105a6.585 6.585 0 011.028.25.774.774 0 01.56.477 2.706 2.706 0 01.119 1.042q-.008.215-.023.333a4.183 4.183 0 01-.09.416 1.544 1.544 0 01-.123.469 6.172 6.172 0 01-1.76.228l-1.346.077q-.647.037-1.25.102l-.455 1.328q-.17.563-.312 1.225l.483.006.548.008q.4.014.73.036t.744.08q.412.058.473.146a2.355 2.355 0 01.453 1.36 3.054 3.054 0 01-.167.767l-.18.542a5.7 5.7 0 01-1.74.305q-1.586.16-2.418.291l-.309 1.118a5.851 5.851 0 00-.202.875l-.003.075.039.12 1.914-.034.796-.004.225.04a.137.137 0 01.084.057.031.031 0 00.01.02l-.006.184.36.475a1.682 1.682 0 01.337 1.112 2.061 2.061 0 01-.148.838q-.126.227-.576.211l-.047-.001a5.8 5.8 0 00-1.28.175 10.064 10.064 0 01-1.282.219l-.313.032a14.222 14.222 0 00-2.59.393zm12.698-6.26q-.003.075.096.116a1.176 1.176 0 00.358.05l.333.012a2.112 2.112 0 00.647-.036q.142-.054.227-.352l.109-.642.112-.749q.124-.696.25-1.426t.286-1.425l.297-1.44-.019-.055-.074-.013a6.4 6.4 0 00-.954 2.063l-.118.318q-.499 1.358-1.01 2.415zm-1.315 3.256q-.182-.007-.594 1.01-.189.467-.381.906t-.356.788l-.293.7a.619.619 0 01-.63.478l-.353-.024-.5-.028a4.218 4.218 0 01-1.076-.683l-.098-.068-.115-.09a.415.415 0 01-.214-.34 21.364 21.364 0 011.682-4.155q.825-1.756 1.904-3.89t2.31-4.421q.114-.196.299-.57l.358-.718q.763-1.532 1.612-1.503a4.044 4.044 0 01.674.088q.182.038.357.087a3.02 3.02 0 01.345.12q.478.166 1.106.338a5.612 5.612 0 01.694.186 1.542 1.542 0 01.576.439.992.992 0 01.172.618l-.456 3.5q-.076.62-.307 2.19t-.338 2.45q-.153 1.316-.191 2.412l-.13 1.564q-.038 1.084-.225 1.207a3.775 3.775 0 01-.825.371 2.587 2.587 0 01-.826.096l-.5-.018a1.4 1.4 0 01-.745-.187.772.772 0 01-.193-.652l.008-.226.024-.375.021-.279-.039-.431-.027-.775a.167.167 0 00-.028-.119l-.085-.024a21.409 21.409 0 00-2.215.03l-.2.014-.118-.015zm7.622-.949a12.2 12.2 0 011.122-.616 1.485 1.485 0 01.598-.172q.44.015.527.287l.058.175a2.9 2.9 0 00.695 1.19 1.489 1.489 0 001.01.45 1.067 1.067 0 00.776-.327 1.234 1.234 0 00.362-.847q.017-.473-1.13-1.802l-.588-.676a4.892 4.892 0 01-.833-1.384 4.582 4.582 0 01-.201-.728 3.36 3.36 0 01-.05-.722 5.686 5.686 0 01.862-2.813 8.515 8.515 0 012.353-2.427 6.122 6.122 0 011.172-.641 2.553 2.553 0 01.933-.253 2.666 2.666 0 011.271.539l.463.295.348.195a2.513 2.513 0 011.287 2.528 5.148 5.148 0 01-.519 2.255q-.47.884-1.13.861a3.532 3.532 0 01-.558-.062q-.267-.053-.427-.09-.297-.075-.532-.143a1.89 1.89 0 01-.297-.101.53.53 0 01-.27-.225 1.254 1.254 0 01-.058-.518l.01-.3q.013-.344.034-.493t.086-.47l.123-.663a.149.149 0 00-.054-.13.455.455 0 00-.186-.071q-.257-.01-.819.68a3.094 3.094 0 00-.4.696 2.122 2.122 0 00-.155.725q-.03.87 1.33 2.248l.446.456a5.541 5.541 0 011.062 1.438 2.874 2.874 0 01.292 1.343 5 5 0 01-1.643 3.484 4.641 4.641 0 01-3.474 1.464 4.093 4.093 0 01-2.822-1.232 3.562 3.562 0 01-1.134-2.753l.049-.499zm13.89 4.888a2.084 2.084 0 01-.725-.186l-.138-.06a1.38 1.38 0 00-.24-.078 1.635 1.635 0 00-.315-.038 1.12 1.12 0 01-.512-.118.709.709 0 01-.23-.18l-.04-.101.249-.96.472-1.795q.117-.49.331-1.176a4.844 4.844 0 00.223-.847l-.24-.847a12.663 12.663 0 01-.337-1.795q-.057-.529-.106-1.128a9.844 9.844 0 01-.03-1.146q.014-.407.012-1.268t.014-1.321q.01-.269.029-.5a4.3 4.3 0 01.077-.513.81.81 0 01.181-.408 2.516 2.516 0 01.838-.454 2.716 2.716 0 01.97-.235q.838.029 1.195 1.17a11.1 11.1 0 01.28 3.46l-.031.568-.027.44v.344a.333.333 0 00.018.064.07.07 0 00.031.034 7.978 7.978 0 00.824-1.59 25.237 25.237 0 011.558-2.885l.763-1.242q1.168-1.927 1.768-1.906a2.111 2.111 0 01.614.122 3.449 3.449 0 01.682.336q.715.433.701.83a7.594 7.594 0 01-.753 1.517q-.747 1.323-2.248 3.743-1.015 1.666-2.093 3.281-1.113 1.702-1.194 1.872l-.481 1.456q-.47 1.477-.947 3.116a.481.481 0 01-.335.36 2.6 2.6 0 01-.808.064zm13.29-14.307a.885.885 0 01-.213.393 2.611 2.611 0 00-.278.42l-.283.7-.472 1.198q-.109.255-.801 2.026-.117.296-.72 1.856l-.65 1.686-.024.074-.12.35q-.466 1.349-1.11 1.326a3.234 3.234 0 01-1.062-.214q-.503-.195-.495-.432a18.375 18.375 0 01.438-2.392q.42-1.886 1.04-4.016.04-.182.057-.24t.113-.356q1.21-4.215 2.242-4.179a2.719 2.719 0 011.475.73q.876.707.864 1.07zm-6.39 14.61a1.554 1.554 0 01-1.11-.517 1.461 1.461 0 01-.446-1.074 2.669 2.669 0 01.83-1.75 2.107 2.107 0 011.53-.812 2.243 2.243 0 011.317.427 1.141 1.141 0 01.503.979 2.989 2.989 0 01-.814 1.9 2.238 2.238 0 01-1.81.849z" fill="#222c25"/></g></g><path d="M372.36 104.344a5.5 5.5 0 005.712 5.472 5.537 5.537 0 005.76-5.472 5.616 5.616 0 00-5.76-5.568 5.574 5.574 0 00-5.712 5.568zm0-13.92a5.5 5.5 0 005.712 5.476 5.537 5.537 0 005.76-5.472 5.616 5.616 0 00-5.76-5.568 5.574 5.574 0 00-5.712 5.564zm16.992 13.92a5.5 5.5 0 005.712 5.472 5.537 5.537 0 005.76-5.472 5.616 5.616 0 00-5.76-5.568 5.574 5.574 0 00-5.712 5.568zm0-13.92a5.5 5.5 0 005.712 5.476 5.537 5.537 0 005.76-5.472 5.616 5.616 0 00-5.76-5.568 5.574 5.574 0 00-5.712 5.564zM508.744 164.568c-5.952 0-11.28 4.368-11.28 9.264 0 2.928 3.6 4.992 5.712 4.992 1.344 0 2.016-5.616 4.416-5.616.816 0 1.152.384 1.152 1.488 0 4.8-8.976 7.392-8.976 12.048 0 3.456 3.6 5.616 6.432 5.616 1.584 0 2.5-.576 2.5-1.2s-.2-.816-.2-1.68c0-3.264 10.176-6 10.176-15.5.004-6.68-4.7-9.412-9.932-9.412zm-9.644 33.024a4.636 4.636 0 004.9 4.32 4.636 4.636 0 004.9-4.32 4.673 4.673 0 00-4.9-4.368 4.673 4.673 0 00-4.9 4.368z" fill="#8d9658" opacity=".336"/><path d="M483.832 62.728c-2.4 0-8.688 2.448-8.688 4.368s1.008 5.52 1.008 7.344-.144 2.016-2.544 2.016-4.032.048-5.328.048-1.78 5.04-1.78 7.536 3.264 2.352 5.76 2.352 3.648-.336 3.648.336a44.715 44.715 0 00-.528 4.608c0 2.016 6.624 2.5 8.64 2.5s2.64-2.544 2.64-8.736c0-.624 1.488-.672 3.84-1.248 2.5-.624 5.088-1.92 5.088-3.648 0-3.168-.528-7.728-1.92-7.728s-4.8 1.68-6.816 1.68c0 0-.528-8.256-.528-9.6s-1.196-1.828-2.492-1.828z" fill="#2f4550" opacity=".336"/><path d="M127.072 165.04c-2.064 0-4.9 6.432-5.52 6.432-1.392 0-2.64-5.856-5.328-5.856-2.736 0-8.256 5.136-8.256 7.3 0 1.776 5.28 3.744 5.28 5.76 0 1.008-5.952 4.416-5.952 6.624 0 1.632 4.608 5.856 6.96 5.856 2.3 0 6.048-5.52 6.816-5.52 1.008-.004 3.072 4.748 6.048 4.748 2.256 0 7.44-5.04 7.44-7.248 0-2.16-7.152-4.7-7.152-5.808 0-1.44 5.52-5.184 5.52-6.816 0-1.968-3.312-5.472-5.856-5.472z" fill="#6a8d7f" opacity=".26"/><path d="M34.048 147.648a7.72 7.72 0 008.016 7.68c4.512 0 8.112-3.216 8.112-7.68a7.892 7.892 0 00-8.112-7.824 7.868 7.868 0 00-8.016 7.824zm5.808-.048a2.369 2.369 0 012.444-2.3 2.357 2.357 0 012.4 2.3 2.357 2.357 0 01-2.4 2.3 2.369 2.369 0 01-2.444-2.3zM64 136.56c-5.136 0-7.536 4.512-12.672 15.312s-7.728 18.96-7.728 21.84 4.176 4.56 6.576 4.56 2.976-.672 2.976-1.68 1.1-6.144 6.1-19.008 9.264-16.7 9.264-18.432S66.88 136.56 64 136.56zm-4.9 29.712a7.72 7.72 0 008.02 7.68c4.512 0 8.112-3.216 8.112-7.68a7.892 7.892 0 00-8.112-7.824 7.868 7.868 0 00-8.02 7.824zm5.808-.048a2.369 2.369 0 012.448-2.3 2.357 2.357 0 012.4 2.3 2.357 2.357 0 01-2.4 2.3 2.369 2.369 0 01-2.444-2.3z" fill="#663d24" opacity=".336"/><path d="M82.57 233.1c0-2.2-2.288-4.18-5.412-4.18-6.336 0-12.672 6.424-12.672 12.892 0 4.18 3.036 7 6.2 7 3.96 0 6.6-4.224 6.6-4.224a6.111 6.111 0 005.548 2.812c4.972 0 10.34-5.368 10.34-13.508 0-8.1-7.3-13.112-16.1-13.112-12.188 0-23.98 9.548-23.98 22.088 0 10.516 7.744 14.564 14.7 14.564 6.644 0 11.176-4.62 11.176-7.48 0-.836-.4-1.232-1.012-1.232-.7 0-2.464 2.552-7 2.552-4.884 0-9.02-3.124-9.02-8.844 0-8.58 7.612-15.884 15.488-15.884 4.532 0 8.052 2.992 8.052 7.612 0 4.576-1.936 7.612-3.52 7.612-.576.004-1.058-.48-1.058-1.668 0-1.76 1.67-5.94 1.67-7zM75 235.172a.781.781 0 01.748.88c.002 2.248-1.934 5.808-3.122 5.808-.792 0-1.012-.572-1.012-1.276 0-2.332 2.244-5.412 3.386-5.412zM446.92 146.544a110.4 110.4 0 00-16.176 1.248c-3.792.624-6.384 1.344-6.384 3.408 0 1.152 2.3 6 4.272 6s10.848-2.112 15.268-2.112a55.5 55.5 0 016.72.48 1.531 1.531 0 001.58-1.344c0-2.688-2.64-7.68-5.28-7.68zm1.44 11.52a110.4 110.4 0 00-16.176 1.248c-3.792.624-6.384 1.344-6.384 3.408 0 1.152 2.3 6 4.272 6s10.848-2.112 15.264-2.112a55.5 55.5 0 016.72.48 1.531 1.531 0 001.584-1.344c0-2.688-2.64-7.68-5.28-7.68z" fill="#6a8d7f" opacity=".336"/></g></svg>