<svg xmlns="http://www.w3.org/2000/svg" width="90" height="60"><defs><clipPath id="a"><path d="M0 0h90v60H0z"/></clipPath></defs><g clip-path="url(#a)"><path d="M80.892 39.823c-3.9.469-26.848 1.471-45.441 2.223-5.332 8.585-19.972 16.189-19.972 16.189 1.987-2.3 5.063-11.221 6.512-15.66-4.744.178-8.376.307-10.09.364-8.407.281-8.143-4.774-8.143-4.774s.147-20.136-.348-27.7S9.365 3.82 9.365 3.82s57.58-.265 65.282-1.078 7.962 5.094 7.962 5.094l3.763 24.312s.73 6.927-5.48 7.675z" fill="#fafaf8"/><path d="M86.395 26.123l-2.117-13.709a43.052 43.052 0 00-1.018-6.112c-1.192-3.868-5.525-4.292-9.38-4-3.651.277-7.334.313-10.995.4-11.359.264-22.724.368-34.085.467q-9.259.08-18.517.127a13.436 13.436 0 00-4.024.459c-4.161 1.351-3.8 5.716-3.659 8.881.38 8.422.3 16.87.245 25.3-.044 7.426 12.332 5.544 18.065 5.193-1.584 4.946-2.964 10.878-6.3 15.107-.552.7 1.239.443 1.519.3a82.289 82.289 0 009.465-5.92 55.542 55.542 0 007.135-6.014 31.3 31.3 0 002.781-3.231c1.081-1.428 3.473-.965 5.282-1.039 13.138-.542 26.582-.523 39.648-1.973a2.032 2.032 0 00.272-.028 1.469 1.469 0 00.226-.046c8.005-1.519 6.28-8.833 5.457-14.162zm-5.422 13.218c-13.152 1.48-26.691 1.453-39.92 2a32.561 32.561 0 00-5.72.269c-.909.215-1.186 1.055-1.64 1.7a37.452 37.452 0 01-7.66 7.5 72.289 72.289 0 01-8.321 5.637c2.6-4.227 3.833-9.5 5.291-13.961.094-.285-.371-.407-.6-.4-4.75.178-16.29 2.44-17.554-3.531-.545-2.577-.031-5.585-.033-8.187 0-5.5-.032-10.992-.2-16.484-.116-3.749-1-9.554 4.471-9.58 18.252-.085 36.512-.187 54.758-.637q3.454-.084 6.9-.222c2.51-.1 5.366-.656 7.719.212 3.412 1.258 3.3 5.606 3.721 8.307l2.549 16.51c.556 3.58 1.987 9.883-3.762 10.866z" fill="#2f3937" stroke="#2f3937" stroke-width="1.5"/><path d="M21.353 23.366q-.123.321-.2.57-.2.607-.55 1.729a46.031 46.031 0 01-1.647 4.637l-.434 1.216q-.332 1.022-.562 1.03a6.776 6.776 0 01-.861-.19l-2.06-.564a1.247 1.247 0 01-.522-.25.517.517 0 01-.171-.373q-.017-.476.01-1.078t.05-1.002a13.746 13.746 0 01.053-1.651q.13-1.165.182-1.765l.642-6.814q.089-.944.17-1.747t.155-1.33l.008-.1q.083-.773 1.51-.823a6.7 6.7 0 01.701.013 6.181 6.181 0 01.767.107q.786.119.84.24l.082.266.046.268q.005.159-.48 2.728l-.838 4.622q-.084.468-.197 1.003t-.235.992l-.224.978a.547.547 0 00.024.17.147.147 0 00.045.066.074.074 0 00.038.016 9.541 9.541 0 001.054-2.665q.841-2.595 1.667-4.736l.38-1.039q.636-1.83 1.375-1.856a3.168 3.168 0 01.927.285l1.322.442a.419.419 0 01.274.143.674.674 0 01.121.32l-.228 1.522-.444 3.018-.571 4.258.043.17a.153.153 0 00.044.047.094.094 0 00.044.023q.132-.42.23-.754.24-.815.64-2.282a46.683 46.683 0 012.108-6.095l.225-.545q1.016-2.43 1.625-2.451a3.811 3.811 0 011.672.32q.806.35.82.74a15.779 15.779 0 01-.888 2.596q-.48 1.263-.75 1.956-.583 1.503-1.11 2.816-.754 1.846-1.5 3.694-.46 1.14-.84 2.167-.436 1.163-.847 2.326l-.163.475-.021.074q-.159.733-1.098.766a5.536 5.536 0 01-1.302-.22 7.215 7.215 0 01-1.546-.545.83.83 0 01-.276-.199.388.388 0 01-.093-.245l.053-.918q.022-.416.053-.912t.087-1.01q.024-.367.109-.884t.266-1.329q.18-.812.258-1.353a5.2 5.2 0 00.063-.91.26.26 0 00-.029-.132.179.179 0 00-.096-.042zm12.438 8.15a.035.035 0 01-.027.016 1.95 1.95 0 01-.226.093l-.62.07a3.916 3.916 0 01-1.93-.341 1.227 1.227 0 01-.77-1.066l-.007-.22a18.858 18.858 0 01.612-4.516q.636-2.758.805-3.888.017-.183.056-.46t.144-.78l.485-2.57a24.288 24.288 0 01.585-2.476l.075-.272-.04-.071-.027-.1.112-.308a3.642 3.642 0 00.137-.629l.42-.185a2.172 2.172 0 00.583-.106l.412-.114a3.2 3.2 0 011.514.4q.113.056.156.073a.6.6 0 00.093.027l.171-.005a.4.4 0 01.265.075.573.573 0 01.174.263l-.208 1.021q-.28 1.805-.61 3.54l-.304 1.77a.565.565 0 00.15.094l.453.021a5.821 5.821 0 001.247-.143q.442-.116.509-.293l.03-.172.59-3.185q.201-1.229.288-1.72t.192-.984l.25-1.243a.655.655 0 01.453-.486 6.957 6.957 0 011.527-.153 1.178 1.178 0 011.002.356l.14.154.373.195q.372.159.379.353l.003.1.03.158.029.145a.754.754 0 01-.09.285l-.125.273-.89 4.612q-.192 1.143-.44 2.446-.04.234-.447 2.217l-.436 2.239q-.301 1.511-.479 2.374-.275 1.243-.536 2.498-.207.031-.334.06t-.357.098a3 3 0 01-.63.132 3.078 3.078 0 01-1.483-.284.986.986 0 01-.658-.839 18.388 18.388 0 01.548-4.575 7.978 7.978 0 00.167-.946.129.129 0 00-.089-.113.985.985 0 00-.37-.025q-1.659.058-1.773.99l-.088.627-.487 2.18zm14.362-7.754q.003.085.12.124a1.336 1.336 0 00.41.028l.378-.013a2.4 2.4 0 00.73-.092q.156-.073.229-.418l.074-.735.07-.857q.083-.796.175-1.637t.208-1.639l.224-1.657-.026-.06-.086-.009a7.278 7.278 0 00-.916 2.414l-.11.37q-.457 1.58-.951 2.818zm-1.236 3.793q-.207.008-.593 1.194-.181.543-.364 1.057t-.337.92l-.276.817a.7.7 0 01-.68.598l-.4.002-.575.007a4.793 4.793 0 01-1.268-.688l-.112-.07-.138-.095a.472.472 0 01-.269-.365 24.278 24.278 0 011.575-4.845q.796-2.055 1.85-4.559t2.268-5.197q.114-.236.294-.67l.349-.843q.743-1.797 1.707-1.83a4.6 4.6 0 01.77.046q.21.03.413.07a3.431 3.431 0 01.404.108q.554.152 1.28.298a6.377 6.377 0 01.8.155 1.752 1.752 0 01.687.452 1.127 1.127 0 01.244.692l-.238 4.003q-.036.71-.175 2.508t-.189 2.808q-.074 1.498-.03 2.743l-.023 1.784q.043 1.232-.16 1.385a4.29 4.29 0 01-.905.49 2.94 2.94 0 01-.929.172l-.573.02a1.587 1.587 0 01-.86-.153.878.878 0 01-.267-.727l-.009-.252-.002-.427v-.317l-.078-.486-.091-.876a.189.189 0 00-.042-.133l-.1-.02a24.329 24.329 0 00-2.51.21l-.23.032-.135-.008zm17.182-11.3q-1.318 5.615-2.51 11.337l-.113.605a3.131 3.131 0 01-.096.403l-.124.64q-.24 1.548-1.156 1.58l-.704-.268a9.388 9.388 0 00-1.383-.428l-.161-.049q-.504-.092-.516-.458l.827-4.275 1.65-8.692-.538-.03-.465-.033-.11.015-.17.018-.402-.035-.416-.034-.076.003a.338.338 0 01-.21-.042l-.055-.181.029-.245.029-.305-.048-.303-.048-.316a4.776 4.776 0 01.074-1.053q.092-.491.248-.583a14.1 14.1 0 013.844-.835l.607-.082 2.157-.16 2.397-.121q.269-.01.47.668a7.013 7.013 0 01.237 1.714.871.871 0 01-.508.86 13.2 13.2 0 01-2.76.685zm4.216 14.375a1.561 1.561 0 01-.402-.035 2.678 2.678 0 01-.482-.183l-.053-.017a1.493 1.493 0 00-.456-.106 1.244 1.244 0 01-.455-.114 1.1 1.1 0 01-.464-.51 1.8 1.8 0 01-.204-.762 2.742 2.742 0 01.714-1.766 2.29 2.29 0 011.743-.97 2.524 2.524 0 011.525.466 1.408 1.408 0 01.751 1.054 3.263 3.263 0 01-.602 1.963 1.982 1.982 0 01-1.615.98zm1.571-5.025l-.38-.06-.54-.081-.465-.021a1.242 1.242 0 01-.245-.016q-.123-.02-.21-.041a2.414 2.414 0 01-.803-.632q-.557-.567-.567-.847-.024-.684 3.653-4.538l.566-.582.813-.835q1.628-1.669 1.616-2.022a.18.18 0 00-.079-.15.574.574 0 00-.258-.07 3.732 3.732 0 00-1.371.42A20.008 20.008 0 0069.3 17.51l-.56.447a1.175 1.175 0 01-.49.298q-.377.013-.698-.623a3.7 3.7 0 01-.355-1.55 2.187 2.187 0 01.99-1.77l.082-.063a11.41 11.41 0 012.543-1.518 6.485 6.485 0 012.158-.624 3.3 3.3 0 012.348 1.14 4.3 4.3 0 01.912 1.25 3.649 3.649 0 01.343 1.442 3.8 3.8 0 01-.5 1.978 12.491 12.491 0 01-2.141 2.561l-1.537 1.472q-1.858 1.726-1.835 2.372a.834.834 0 00.083.278l.092.217a.636.636 0 01-.312.512 1.285 1.285 0 01-.539.275z" fill="#2f3937"/></g></svg>